<svg width="323" height="298" viewBox="0 0 323 298" fill="none" xmlns="http://www.w3.org/2000/svg">
<path d="M139.401 296.372C215.507 296.372 277.203 234.676 277.203 158.57C277.203 82.4636 215.507 20.7673 139.401 20.7673C63.2946 20.7673 1.59827 82.4636 1.59827 158.57C1.59827 234.676 63.2946 296.372 139.401 296.372Z" stroke="#E6E6E6" stroke-width="3"/>
<path d="M157.197 0H165.436C165.739 0.00146719 166.03 0.122736 166.245 0.337454C166.46 0.552173 166.581 0.842987 166.583 1.14669V9.38812C166.581 9.69149 166.46 9.98193 166.245 10.1961C166.03 10.4102 165.739 10.5307 165.436 10.5312H157.196C156.892 10.5312 156.601 10.4108 156.387 10.1965C156.172 9.98214 156.052 9.6914 156.051 9.38812V1.14708C156.052 0.843154 156.173 0.551818 156.387 0.336834C156.602 0.121849 156.894 0.000738002 157.197 0ZM165.436 10.1611C165.641 10.1608 165.838 10.0792 165.984 9.93417C166.129 9.78913 166.212 9.59241 166.213 9.38693V1.14669C166.211 0.94088 166.129 0.743868 165.983 0.598408C165.838 0.452949 165.641 0.370781 165.435 0.369734H157.199C156.993 0.370156 156.795 0.452146 156.65 0.597763C156.504 0.74338 156.422 0.94076 156.422 1.14669V9.38732C156.422 9.5925 156.504 9.78922 156.649 9.93423C156.794 10.0792 156.991 10.1607 157.196 10.1607L165.436 10.1611Z" fill="#D6D6E3"/>
<path d="M165.435 14.2279H157.197C157.071 14.228 156.946 14.2529 156.829 14.3014C156.712 14.3498 156.606 14.4208 156.517 14.5102C156.428 14.5997 156.357 14.7058 156.308 14.8227C156.26 14.9395 156.235 15.0647 156.235 15.1911V23.4318C156.236 23.5578 156.261 23.6826 156.309 23.7989C156.358 23.9152 156.429 24.0208 156.518 24.1097C156.607 24.1986 156.713 24.2691 156.83 24.317C156.947 24.3649 157.071 24.3894 157.197 24.389H165.435C165.689 24.3891 165.933 24.2884 166.113 24.109C166.294 23.9296 166.395 23.6861 166.397 23.4318V15.1911C166.396 14.9362 166.294 14.6919 166.114 14.5117C165.934 14.3314 165.689 14.2298 165.435 14.2291V14.2279Z" fill="#D6D6E3"/>
<path d="M165.435 28.2709H157.197C156.942 28.271 156.698 28.3724 156.517 28.5528C156.337 28.7332 156.236 28.9778 156.235 29.2329V37.4703C156.235 37.5968 156.26 37.722 156.308 37.8388C156.356 37.9556 156.427 38.0618 156.517 38.1512C156.606 38.2406 156.712 38.3114 156.829 38.3597C156.946 38.4079 157.071 38.4326 157.197 38.4324H165.435C165.69 38.4323 165.934 38.3309 166.115 38.1505C166.295 37.9701 166.396 37.7255 166.397 37.4703V29.2329C166.396 28.978 166.294 28.7337 166.114 28.5535C165.934 28.3732 165.689 28.2716 165.435 28.2709Z" fill="#D6D6E3"/>
<path d="M166.382 43.1053C166.341 42.8837 166.224 42.6833 166.051 42.5387C165.878 42.3941 165.66 42.3144 165.435 42.3132H157.197C156.942 42.3133 156.698 42.4147 156.517 42.5951C156.337 42.7755 156.236 43.0201 156.235 43.2753V51.5123C156.235 51.6387 156.26 51.7639 156.308 51.8808C156.356 51.9976 156.427 52.1038 156.517 52.1931C156.606 52.2825 156.712 52.3534 156.829 52.4016C156.946 52.4499 157.071 52.4746 157.197 52.4743H165.435C165.69 52.4742 165.934 52.3728 166.115 52.1924C166.295 52.012 166.396 51.7674 166.397 51.5123V43.2768C166.397 43.2197 166.392 43.1627 166.382 43.1065V43.1053Z" fill="#D6D6E3"/>
<path d="M165.808 56.4305C165.69 56.3814 165.563 56.3562 165.435 56.3563H157.198C157.071 56.3561 156.946 56.3808 156.829 56.429C156.712 56.4773 156.606 56.5481 156.517 56.6375C156.427 56.7269 156.356 56.8331 156.308 56.9499C156.26 57.0667 156.235 57.1919 156.235 57.3184V65.5562C156.235 65.6827 156.259 65.8081 156.307 65.9251C156.356 66.0421 156.426 66.1484 156.516 66.2379C156.605 66.3273 156.712 66.3982 156.829 66.4463C156.946 66.4944 157.071 66.5188 157.198 66.5182H165.435C165.69 66.518 165.934 66.4166 166.115 66.2362C166.295 66.0558 166.396 65.8113 166.397 65.5562V57.3187C166.396 57.1294 166.34 56.9443 166.236 56.7864C166.131 56.6285 165.982 56.5048 165.808 56.4305Z" fill="#D6D6E3"/>
<path d="M182.737 0.185059H174.5C174.245 0.185164 174.001 0.286556 173.82 0.466948C173.64 0.64734 173.538 0.891966 173.538 1.14708V9.38772C173.539 9.51375 173.564 9.6385 173.612 9.75483C173.661 9.87117 173.732 9.97679 173.821 10.0657C173.91 10.1546 174.016 10.225 174.133 10.2729C174.25 10.3208 174.374 10.3453 174.5 10.345H182.737C182.992 10.3451 183.236 10.2444 183.416 10.065C183.596 9.88558 183.698 9.64206 183.699 9.38772V1.14708C183.699 0.89216 183.597 0.647897 183.417 0.467642C183.237 0.287387 182.992 0.185795 182.737 0.185059Z" fill="#D6D6E3"/>
<path d="M182.737 14.2279H174.5C174.374 14.228 174.249 14.2529 174.132 14.3014C174.015 14.3498 173.909 14.4208 173.82 14.5102C173.731 14.5997 173.66 14.7058 173.611 14.8227C173.563 14.9395 173.538 15.0647 173.538 15.1911V23.4318C173.539 23.5578 173.564 23.6826 173.612 23.7989C173.661 23.9152 173.732 24.0208 173.821 24.1097C173.91 24.1986 174.016 24.2691 174.133 24.317C174.25 24.3649 174.374 24.3894 174.5 24.389H182.737C182.992 24.3891 183.236 24.2884 183.416 24.109C183.596 23.9296 183.698 23.6861 183.699 23.4318V15.1911C183.699 14.9362 183.597 14.6919 183.417 14.5117C183.237 14.3314 182.992 14.2298 182.737 14.2291V14.2279Z" fill="#6C63FF"/>
<path d="M182.737 28.2709H174.5C174.245 28.271 174.001 28.3724 173.82 28.5528C173.64 28.7332 173.538 28.9778 173.538 29.2329V37.4703C173.538 37.5968 173.563 37.722 173.611 37.8388C173.659 37.9556 173.73 38.0618 173.82 38.1512C173.909 38.2406 174.015 38.3114 174.132 38.3597C174.249 38.4079 174.374 38.4326 174.5 38.4324H182.737C182.993 38.4323 183.237 38.3309 183.418 38.1505C183.598 37.9701 183.699 37.7255 183.699 37.4703V29.2329C183.699 28.978 183.597 28.7337 183.417 28.5535C183.237 28.3732 182.992 28.2716 182.737 28.2709Z" fill="#6C63FF"/>
<path d="M182.737 42.3136H174.5C174.299 42.3134 174.102 42.377 173.939 42.4953C173.775 42.6136 173.653 42.7804 173.59 42.9721C173.556 43.0696 173.538 43.1723 173.538 43.2756V51.5127C173.538 51.6391 173.563 51.7643 173.611 51.8811C173.659 51.998 173.73 52.1041 173.82 52.1935C173.909 52.2829 174.015 52.3538 174.132 52.402C174.249 52.4503 174.374 52.475 174.5 52.4747H182.737C182.993 52.4746 183.237 52.3732 183.418 52.1928C183.598 52.0124 183.699 51.7678 183.699 51.5127V43.2768C183.699 43.0217 183.597 42.7772 183.417 42.5967C183.237 42.4162 182.993 42.3144 182.737 42.3136Z" fill="#6C63FF"/>
<path d="M182.737 56.3567H174.5C174.374 56.3564 174.249 56.3811 174.132 56.4294C174.015 56.4776 173.909 56.5485 173.82 56.6379C173.73 56.7273 173.659 56.8334 173.611 56.9503C173.563 57.0671 173.538 57.1923 173.538 57.3187V65.5562C173.538 65.6826 173.563 65.8078 173.611 65.9246C173.659 66.0415 173.73 66.1476 173.82 66.237C173.909 66.3264 174.015 66.3972 174.132 66.4455C174.249 66.4937 174.374 66.5184 174.5 66.5182H182.737C182.993 66.5181 183.237 66.4167 183.418 66.2363C183.598 66.0559 183.699 65.8113 183.699 65.5562V57.3187C183.699 57.0636 183.598 56.819 183.418 56.6386C183.237 56.4582 182.993 56.3568 182.737 56.3567Z" fill="#D6D6E3"/>
<path d="M200.04 0.185059H191.803C191.548 0.185164 191.303 0.286556 191.123 0.466948C190.942 0.64734 190.841 0.891966 190.841 1.14708V9.38772C190.841 9.51375 190.866 9.6385 190.915 9.75483C190.963 9.87117 191.034 9.97679 191.124 10.0657C191.213 10.1546 191.319 10.225 191.435 10.2729C191.552 10.3208 191.677 10.3453 191.803 10.345H200.04C200.294 10.3451 200.538 10.2444 200.719 10.065C200.899 9.88558 201.001 9.64206 201.002 9.38772V1.14708C201.001 0.89216 200.9 0.647897 200.719 0.467642C200.539 0.287387 200.295 0.185795 200.04 0.185059Z" fill="#6C63FF"/>
<path d="M200.04 14.2279H191.803C191.677 14.228 191.551 14.253 191.435 14.3015C191.318 14.3499 191.212 14.4209 191.123 14.5104C191.033 14.5998 190.963 14.706 190.914 14.8228C190.866 14.9396 190.841 15.0647 190.841 15.1911V23.4318C190.842 23.5578 190.867 23.6826 190.915 23.7989C190.964 23.9152 191.035 24.0208 191.124 24.1097C191.213 24.1986 191.319 24.2691 191.436 24.317C191.552 24.3649 191.677 24.3894 191.803 24.389H200.04C200.295 24.3891 200.539 24.2884 200.719 24.109C200.899 23.9296 201.001 23.6861 201.002 23.4318V15.1911C201.002 14.9362 200.9 14.6919 200.72 14.5117C200.54 14.3314 200.295 14.2298 200.04 14.2291V14.2279Z" fill="#6C63FF"/>
<path d="M200.04 28.2709H191.803C191.548 28.271 191.303 28.3724 191.123 28.5528C190.942 28.7332 190.841 28.9778 190.841 29.2329V37.4703C190.841 37.5968 190.865 37.722 190.914 37.8388C190.962 37.9556 191.033 38.0618 191.122 38.1512C191.211 38.2406 191.318 38.3114 191.434 38.3597C191.551 38.4079 191.676 38.4326 191.803 38.4324H200.04C200.295 38.4323 200.54 38.3309 200.72 38.1505C200.9 37.9701 201.002 37.7255 201.002 37.4703V29.2329C201.001 28.978 200.9 28.7338 200.72 28.5536C200.539 28.3733 200.295 28.2717 200.04 28.2709Z" fill="#D6D6E3"/>
<path d="M200.04 42.3136H191.803C191.548 42.3137 191.303 42.4151 191.123 42.5955C190.942 42.7759 190.841 43.0205 190.841 43.2756V51.5127C190.841 51.6391 190.865 51.7643 190.914 51.8811C190.962 51.998 191.033 52.1041 191.122 52.1935C191.211 52.2829 191.318 52.3538 191.434 52.402C191.551 52.4503 191.676 52.475 191.803 52.4747H200.04C200.295 52.4746 200.54 52.3732 200.72 52.1928C200.9 52.0124 201.002 51.7678 201.002 51.5127V43.2768C201.002 43.0218 200.9 42.7773 200.72 42.5968C200.54 42.4163 200.295 42.3144 200.04 42.3136Z" fill="#6C63FF"/>
<path d="M200.04 56.3567H191.803C191.676 56.3564 191.551 56.3811 191.434 56.4294C191.318 56.4776 191.211 56.5485 191.122 56.6379C191.033 56.7273 190.962 56.8334 190.914 56.9503C190.865 57.0671 190.841 57.1923 190.841 57.3187V65.5562C190.841 65.6826 190.865 65.8078 190.914 65.9246C190.962 66.0415 191.033 66.1476 191.122 66.237C191.211 66.3264 191.318 66.3972 191.434 66.4455C191.551 66.4937 191.676 66.5184 191.803 66.5182H200.04C200.295 66.518 200.54 66.4166 200.72 66.2362C200.9 66.0558 201.002 65.8112 201.002 65.5562V57.3187C201.002 57.0636 200.9 56.819 200.72 56.6386C200.54 56.4582 200.295 56.3568 200.04 56.3567Z" fill="#6C63FF"/>
<path d="M217.343 0.185059H209.106C208.851 0.185164 208.606 0.286556 208.426 0.466948C208.246 0.64734 208.144 0.891966 208.144 1.14708V9.38772C208.144 9.51374 208.17 9.63846 208.218 9.75477C208.267 9.87108 208.338 9.97668 208.427 10.0656C208.516 10.1545 208.622 10.2249 208.739 10.2728C208.855 10.3208 208.98 10.3453 209.106 10.345H217.343C217.598 10.3451 217.842 10.2444 218.022 10.065C218.202 9.88558 218.304 9.64206 218.305 9.38772V1.14708C218.305 0.89216 218.203 0.647897 218.023 0.467642C217.842 0.287387 217.598 0.185795 217.343 0.185059Z" fill="#6C63FF"/>
<path d="M209.106 14.0431H217.343C217.647 14.0446 217.938 14.1658 218.153 14.3805C218.367 14.5953 218.489 14.8861 218.49 15.1898V23.4312C218.489 23.7346 218.367 24.0251 218.153 24.2393C217.938 24.4535 217.647 24.5741 217.344 24.5747H209.103C208.8 24.5747 208.509 24.4543 208.295 24.24C208.08 24.0256 207.959 23.7349 207.959 23.4316V15.1902C207.96 14.8861 208.081 14.5947 208.296 14.3797C208.511 14.1646 208.802 14.0436 209.106 14.0431ZM217.343 24.2042C217.549 24.2039 217.746 24.1223 217.891 23.9773C218.037 23.8322 218.119 23.6355 218.12 23.43V15.1898C218.119 14.984 218.037 14.787 217.891 14.6415C217.745 14.496 217.548 14.4139 217.342 14.4128H209.106C208.9 14.4132 208.703 14.4952 208.557 14.6409C208.412 14.7865 208.33 14.9839 208.329 15.1898V23.4304C208.329 23.6356 208.411 23.8323 208.556 23.9773C208.701 24.1223 208.898 24.2038 209.103 24.2038L217.343 24.2042Z" fill="#D6D6E3"/>
<path d="M209.106 28.0859H217.343C217.647 28.0874 217.938 28.2087 218.153 28.4234C218.367 28.6381 218.489 28.9289 218.49 29.2326V37.4701C218.49 37.7741 218.369 38.0656 218.154 38.2806C217.939 38.4956 217.647 38.6166 217.343 38.6172H209.104C208.954 38.6176 208.805 38.5881 208.666 38.5305C208.527 38.473 208.401 38.3884 208.295 38.2817C208.08 38.0659 207.959 37.774 207.959 37.4697V29.233C207.96 28.929 208.081 28.6375 208.296 28.4225C208.511 28.2075 208.802 28.0865 209.106 28.0859ZM217.343 38.247C217.549 38.2466 217.747 38.1646 217.892 38.019C218.038 37.8734 218.12 37.676 218.12 37.4701V29.233C218.119 29.0272 218.037 28.8302 217.891 28.6847C217.745 28.5393 217.548 28.4571 217.342 28.4561H209.106C208.9 28.4565 208.703 28.5385 208.557 28.6842C208.411 28.8299 208.33 29.0274 208.329 29.2334V37.4705C208.329 37.6766 208.411 37.8743 208.556 38.0205C208.628 38.0927 208.713 38.1499 208.807 38.1888C208.902 38.2278 209.002 38.2477 209.104 38.2474L217.343 38.247Z" fill="#D6D6E3"/>
<path d="M217.343 42.3136H209.106C208.851 42.3137 208.606 42.4151 208.426 42.5955C208.246 42.7759 208.144 43.0205 208.144 43.2756V51.5127C208.144 51.6391 208.169 51.7643 208.217 51.8811C208.265 51.998 208.336 52.1041 208.425 52.1935C208.515 52.2829 208.621 52.3538 208.738 52.402C208.855 52.4503 208.98 52.475 209.106 52.4747H217.343C217.598 52.4746 217.843 52.3732 218.023 52.1928C218.204 52.0124 218.305 51.7678 218.305 51.5127V43.2768C218.305 43.0217 218.203 42.7771 218.023 42.5966C217.843 42.4161 217.598 42.3143 217.343 42.3136Z" fill="#D6D6E3"/>
<path d="M217.343 56.3567H209.106C208.98 56.3564 208.855 56.3811 208.738 56.4294C208.621 56.4776 208.515 56.5485 208.425 56.6379C208.336 56.7273 208.265 56.8334 208.217 56.9503C208.169 57.0671 208.144 57.1923 208.144 57.3187V65.5562C208.144 65.6826 208.169 65.8077 208.217 65.9246C208.265 66.0414 208.336 66.1475 208.425 66.2369C208.515 66.3263 208.621 66.3971 208.738 66.4454C208.855 66.4937 208.98 66.5184 209.106 66.5182H217.343C217.598 66.5181 217.843 66.4167 218.023 66.2363C218.204 66.0559 218.305 65.8113 218.305 65.5562V57.3187C218.305 57.0636 218.204 56.819 218.023 56.6386C217.843 56.4582 217.598 56.3568 217.343 56.3567Z" fill="#6C63FF"/>
<path d="M226.405 0H234.646C234.95 0.00146719 235.241 0.122736 235.455 0.337454C235.67 0.552173 235.792 0.842987 235.793 1.14669V9.38812C235.792 9.69149 235.67 9.98197 235.456 10.1962C235.241 10.4104 234.95 10.531 234.647 10.5316H226.405C226.102 10.5311 225.812 10.4104 225.597 10.1961C225.383 9.98175 225.262 9.6912 225.262 9.38812V1.14708C225.262 0.843742 225.383 0.552883 225.597 0.337978C225.811 0.123073 226.101 0.00157961 226.405 0ZM234.646 10.1611C234.852 10.1608 235.049 10.0792 235.194 9.93417C235.34 9.78913 235.422 9.59241 235.423 9.38693V1.14669C235.422 0.94088 235.339 0.743868 235.194 0.598408C235.048 0.452949 234.851 0.370781 234.645 0.369734H226.406C226.2 0.370787 226.004 0.453067 225.859 0.598628C225.714 0.744188 225.632 0.94121 225.632 1.14669V9.38732C225.632 9.59233 225.714 9.78886 225.859 9.93383C226.004 10.0788 226.2 10.1604 226.405 10.1607L234.646 10.1611Z" fill="#D6D6E3"/>
<path d="M226.405 14.0431H234.646C234.95 14.0446 235.241 14.1658 235.455 14.3805C235.67 14.5953 235.792 14.8861 235.793 15.1898V23.4312C235.792 23.7346 235.67 24.0251 235.456 24.2393C235.241 24.4535 234.95 24.5741 234.647 24.5747H226.405C226.102 24.5743 225.811 24.4537 225.597 24.2393C225.383 24.0249 225.262 23.7343 225.262 23.4312V15.1902C225.262 14.8868 225.383 14.596 225.597 14.3811C225.811 14.1662 226.101 14.0447 226.405 14.0431ZM226.405 24.2042H234.646C234.851 24.2039 235.048 24.1223 235.194 23.9773C235.339 23.8322 235.422 23.6355 235.423 23.43V15.1898C235.421 14.984 235.339 14.787 235.193 14.6415C235.048 14.496 234.851 14.4139 234.645 14.4128H226.406C226.2 14.4139 226.004 14.4962 225.859 14.6417C225.714 14.7873 225.632 14.9843 225.632 15.1898V23.4304C225.632 23.6355 225.713 23.8322 225.858 23.9773C226.003 24.1224 226.2 24.204 226.405 24.2042Z" fill="#D6D6E3"/>
<path d="M226.405 28.0859H234.646C234.95 28.0874 235.241 28.2087 235.455 28.4234C235.67 28.6381 235.792 28.9289 235.793 29.2326V37.4701C235.793 37.7741 235.672 38.0656 235.457 38.2806C235.242 38.4956 234.95 38.6166 234.646 38.6172H226.406C226.255 38.6171 226.106 38.5873 225.967 38.5295C225.828 38.4718 225.702 38.3872 225.596 38.2806C225.49 38.174 225.405 38.0475 225.348 37.9084C225.291 37.7692 225.262 37.6201 225.262 37.4697V29.233C225.262 28.9297 225.383 28.6388 225.597 28.4239C225.811 28.209 226.101 28.0875 226.405 28.0859ZM226.405 38.247H234.645C234.851 38.2466 235.049 38.1646 235.194 38.019C235.34 37.8734 235.422 37.676 235.422 37.4701V29.233C235.421 29.0272 235.339 28.8302 235.193 28.6847C235.047 28.5393 234.85 28.4571 234.645 28.4561H226.406C226.2 28.4571 226.004 28.5394 225.859 28.685C225.714 28.8305 225.632 29.0275 225.632 29.233V37.4701C225.631 37.5719 225.651 37.6728 225.69 37.7669C225.729 37.8611 225.785 37.9467 225.857 38.0189C225.929 38.0911 226.015 38.1484 226.109 38.1875C226.202 38.2266 226.303 38.2469 226.405 38.247Z" fill="#D6D6E3"/>
<path d="M234.646 42.3136H226.405C226.151 42.3148 225.908 42.4166 225.728 42.5969C225.549 42.7772 225.448 43.0213 225.448 43.2756V51.5127C225.448 51.6387 225.472 51.7636 225.52 51.8801C225.568 51.9967 225.639 52.1027 225.727 52.1921C225.816 52.2814 225.922 52.3523 226.038 52.4008C226.155 52.4493 226.279 52.4744 226.405 52.4747H234.646C234.901 52.4746 235.146 52.3732 235.326 52.1928C235.507 52.0124 235.608 51.7678 235.608 51.5127V43.2768C235.607 43.0219 235.506 42.7777 235.325 42.5975C235.145 42.4173 234.901 42.3156 234.646 42.3148V42.3136Z" fill="#6C63FF"/>
<path d="M234.646 56.3567H226.405C226.279 56.357 226.155 56.3821 226.038 56.4307C225.922 56.4792 225.817 56.5501 225.728 56.6395C225.639 56.7288 225.568 56.8348 225.52 56.9513C225.472 57.0678 225.448 57.1927 225.448 57.3187V65.5562C225.448 65.6822 225.472 65.8071 225.52 65.9236C225.568 66.0402 225.639 66.1462 225.727 66.2355C225.816 66.3249 225.922 66.3958 226.038 66.4443C226.155 66.4928 226.279 66.5179 226.405 66.5182H234.646C234.901 66.5181 235.146 66.4167 235.326 66.2363C235.507 66.0559 235.608 65.8113 235.608 65.5562V57.3187C235.608 57.0636 235.507 56.819 235.326 56.6386C235.146 56.4582 234.901 56.3568 234.646 56.3567Z" fill="#D6D6E3"/>
<path d="M243.708 0H251.95C252.254 0.00146719 252.545 0.122736 252.76 0.337454C252.974 0.552173 253.096 0.842987 253.097 1.14669V9.38812C253.096 9.69149 252.974 9.98197 252.76 10.1962C252.545 10.4104 252.254 10.531 251.951 10.5316H243.708C243.405 10.5312 243.114 10.4106 242.9 10.1962C242.686 9.98184 242.565 9.69123 242.565 9.38812V1.14708C242.565 0.843742 242.686 0.552883 242.9 0.337978C243.114 0.123073 243.404 0.00157961 243.708 0ZM251.95 10.1611C252.156 10.1608 252.353 10.0792 252.498 9.93417C252.644 9.78913 252.726 9.59241 252.727 9.38693V1.14669C252.726 0.94088 252.644 0.743868 252.498 0.598408C252.352 0.452949 252.155 0.370781 251.949 0.369734H243.709C243.503 0.370787 243.307 0.453067 243.162 0.598628C243.017 0.744188 242.935 0.94121 242.935 1.14669V9.38732C242.935 9.59233 243.017 9.78886 243.161 9.93383C243.306 10.0788 243.503 10.1604 243.708 10.1607L251.95 10.1611Z" fill="#D6D6E3"/>
<path d="M243.708 14.0431H251.95C252.254 14.0446 252.545 14.1658 252.76 14.3805C252.974 14.5953 253.096 14.8861 253.097 15.1898V23.4312C253.096 23.7346 252.974 24.0251 252.76 24.2393C252.545 24.4535 252.254 24.5741 251.951 24.5747H243.708C243.405 24.5742 243.114 24.4535 242.9 24.2392C242.686 24.0248 242.565 23.7343 242.565 23.4312V15.1902C242.565 14.8868 242.686 14.596 242.9 14.3811C243.114 14.1662 243.404 14.0447 243.708 14.0431ZM243.708 24.2042H251.95C252.156 24.2039 252.353 24.1223 252.498 23.9773C252.644 23.8322 252.726 23.6355 252.727 23.43V15.1898C252.726 14.984 252.644 14.787 252.498 14.6415C252.352 14.496 252.155 14.4139 251.949 14.4128H243.709C243.503 14.4139 243.307 14.4962 243.162 14.6417C243.017 14.7873 242.935 14.9843 242.935 15.1898V23.4304C242.935 23.6355 243.016 23.8321 243.161 23.9772C243.306 24.1222 243.503 24.2039 243.708 24.2042H243.708Z" fill="#D6D6E3"/>
<path d="M251.949 28.2709H243.708C243.454 28.272 243.211 28.3739 243.031 28.5542C242.852 28.7345 242.751 28.9785 242.751 29.2329V37.4703C242.751 37.5964 242.775 37.7213 242.823 37.8378C242.871 37.9544 242.942 38.0604 243.03 38.1497C243.119 38.2391 243.225 38.31 243.341 38.3585C243.458 38.407 243.582 38.4321 243.708 38.4324H251.949C252.204 38.4323 252.449 38.3309 252.629 38.1505C252.81 37.9701 252.911 37.7255 252.911 37.4703V29.2329C252.91 28.978 252.809 28.7337 252.628 28.5535C252.448 28.3732 252.204 28.2716 251.949 28.2709Z" fill="#6C63FF"/>
<path d="M251.949 42.3136H243.708C243.454 42.3149 243.211 42.4168 243.031 42.5971C242.852 42.7773 242.751 43.0213 242.751 43.2756V51.5127C242.751 51.6387 242.775 51.7636 242.823 51.8801C242.871 51.9967 242.942 52.1027 243.03 52.1921C243.119 52.2814 243.225 52.3523 243.341 52.4008C243.458 52.4493 243.582 52.4744 243.708 52.4747H251.949C252.204 52.4746 252.449 52.3732 252.629 52.1928C252.81 52.0124 252.911 51.7678 252.911 51.5127V43.2768C252.91 43.0219 252.809 42.7776 252.628 42.5974C252.448 42.4171 252.204 42.3155 251.949 42.3148V42.3136Z" fill="#D6D6E3"/>
<path d="M243.708 56.1716H251.95C252.254 56.1722 252.546 56.2932 252.761 56.5082C252.976 56.7232 253.097 57.0147 253.097 57.3187V65.5558C253.097 65.8598 252.976 66.1513 252.761 66.3663C252.546 66.5813 252.254 66.7023 251.95 66.7029H243.708C243.558 66.7028 243.409 66.673 243.27 66.6152C243.131 66.5574 243.005 66.4728 242.898 66.3662C242.792 66.2595 242.708 66.133 242.651 65.9938C242.594 65.8546 242.564 65.7055 242.565 65.555V57.3187C242.565 57.1683 242.594 57.0193 242.651 56.8802C242.708 56.7412 242.792 56.6147 242.899 56.5082C243.005 56.4017 243.131 56.3171 243.27 56.2593C243.409 56.2016 243.558 56.1718 243.708 56.1716ZM251.95 66.3327C252.156 66.3323 252.354 66.2503 252.499 66.1046C252.645 65.9589 252.727 65.7614 252.727 65.5554V57.3187C252.727 57.1127 252.645 56.9153 252.499 56.7696C252.353 56.624 252.156 56.5421 251.95 56.5418H243.71C243.608 56.5419 243.507 56.562 243.413 56.6011C243.319 56.6402 243.234 56.6975 243.162 56.7696C243.09 56.8417 243.033 56.9273 242.994 57.0215C242.955 57.1156 242.936 57.2165 242.936 57.3183V65.5558C242.935 65.6576 242.955 65.7585 242.994 65.8527C243.033 65.9469 243.089 66.0325 243.161 66.1047C243.233 66.1769 243.319 66.2342 243.413 66.2733C243.507 66.3124 243.607 66.3326 243.709 66.3327H251.95Z" fill="#D6D6E3"/>
<path d="M269.252 0.185059H261.011C260.757 0.186219 260.513 0.288096 260.334 0.468397C260.155 0.648697 260.054 0.892729 260.054 1.14708V9.38772C260.054 9.64159 260.155 9.88507 260.334 10.0646C260.514 10.2441 260.757 10.345 261.011 10.345H269.252C269.507 10.3451 269.751 10.2444 269.931 10.065C270.111 9.88558 270.213 9.64206 270.214 9.38772V1.14708C270.214 0.892092 270.112 0.647763 269.932 0.467496C269.751 0.287229 269.507 0.18569 269.252 0.185059Z" fill="#6C63FF"/>
<path d="M269.252 14.2279H261.011C260.757 14.2291 260.513 14.331 260.334 14.5113C260.155 14.6916 260.054 14.9356 260.054 15.1899V23.4306C260.054 23.6844 260.155 23.9279 260.334 24.1074C260.514 24.2869 260.757 24.3878 261.011 24.3878H269.252C269.507 24.3879 269.751 24.2872 269.931 24.1078C270.111 23.9284 270.213 23.6849 270.214 23.4306V15.1911C270.214 14.9359 270.112 14.6913 269.932 14.5108C269.752 14.3303 269.507 14.2285 269.252 14.2279Z" fill="#6C63FF"/>
<path d="M269.252 28.2709H261.011C260.757 28.272 260.513 28.3739 260.334 28.5542C260.155 28.7345 260.054 28.9785 260.054 29.2329V37.4703C260.054 37.5964 260.078 37.7213 260.126 37.8378C260.174 37.9544 260.244 38.0604 260.333 38.1497C260.422 38.2391 260.528 38.31 260.644 38.3585C260.761 38.407 260.885 38.4321 261.011 38.4324H269.252C269.507 38.4323 269.752 38.3309 269.932 38.1505C270.112 37.9701 270.214 37.7255 270.214 37.4703V29.2329C270.213 28.978 270.112 28.7337 269.931 28.5535C269.751 28.3732 269.507 28.2716 269.252 28.2709Z" fill="#D6D6E3"/>
<path d="M261.01 42.1285H269.252C269.556 42.13 269.846 42.2513 270.061 42.466C270.276 42.6807 270.397 42.9715 270.399 43.2752V51.5127C270.398 51.8167 270.277 52.1082 270.062 52.3232C269.847 52.5382 269.556 52.6592 269.252 52.6598H261.013C260.862 52.6597 260.713 52.6299 260.574 52.5721C260.436 52.5144 260.309 52.4298 260.203 52.3232C260.097 52.2166 260.013 52.0901 259.955 51.951C259.898 51.8118 259.869 51.6628 259.869 51.5123V43.2756C259.87 42.9726 259.99 42.682 260.204 42.4672C260.418 42.2524 260.707 42.1306 261.01 42.1285ZM269.252 52.2896C269.458 52.2892 269.655 52.2072 269.801 52.0616C269.946 51.916 270.028 51.7186 270.029 51.5127V43.2756C270.028 43.0698 269.945 42.8728 269.8 42.7274C269.654 42.5819 269.457 42.4997 269.251 42.4987H261.013C260.807 42.4997 260.611 42.582 260.466 42.7276C260.321 42.8731 260.239 43.0702 260.239 43.2756V51.5127C260.238 51.6145 260.258 51.7154 260.297 51.8096C260.336 51.9038 260.393 51.9895 260.464 52.0616C260.536 52.1338 260.622 52.1911 260.716 52.2302C260.81 52.2694 260.911 52.2895 261.012 52.2896H269.252Z" fill="#D6D6E3"/>
<path d="M269.252 56.3567H261.011C260.885 56.357 260.761 56.3821 260.644 56.4305C260.528 56.479 260.422 56.55 260.333 56.6393C260.244 56.7287 260.174 56.8347 260.126 56.9512C260.078 57.0678 260.054 57.1927 260.054 57.3187V65.5562C260.054 65.6822 260.078 65.8071 260.126 65.9236C260.174 66.0402 260.244 66.1462 260.333 66.2355C260.422 66.3249 260.528 66.3958 260.644 66.4443C260.761 66.4928 260.885 66.5179 261.011 66.5182H269.252C269.507 66.5181 269.752 66.4167 269.932 66.2363C270.112 66.0559 270.214 65.8113 270.214 65.5562V57.3187C270.214 57.0636 270.112 56.819 269.932 56.6386C269.752 56.4582 269.507 56.3568 269.252 56.3567Z" fill="#6C63FF"/>
<path d="M286.555 0.185059H278.314C278.06 0.186219 277.816 0.288096 277.637 0.468397C277.457 0.648697 277.357 0.892729 277.357 1.14708V9.38772C277.357 9.64159 277.458 9.88507 277.637 10.0646C277.817 10.2441 278.06 10.345 278.314 10.345H286.555C286.81 10.3451 287.054 10.2444 287.234 10.065C287.414 9.88558 287.516 9.64206 287.517 9.38772V1.14708C287.516 0.892092 287.415 0.647763 287.234 0.467496C287.054 0.287229 286.81 0.18569 286.555 0.185059Z" fill="#6C63FF"/>
<path d="M286.555 14.2279H278.314C278.06 14.2291 277.816 14.331 277.637 14.5113C277.457 14.6916 277.357 14.9356 277.357 15.1899V23.4306C277.357 23.6844 277.458 23.9279 277.637 24.1074C277.817 24.2869 278.06 24.3878 278.314 24.3878H286.555C286.81 24.3879 287.054 24.2872 287.234 24.1078C287.414 23.9284 287.516 23.6849 287.517 23.4306V15.1911C287.517 14.9359 287.415 14.6913 287.235 14.5108C287.055 14.3303 286.81 14.2285 286.555 14.2279Z" fill="#6C63FF"/>
<path d="M286.555 28.2709H278.314C278.06 28.272 277.816 28.3739 277.637 28.5542C277.457 28.7345 277.357 28.9785 277.357 29.2329V37.4703C277.357 37.5964 277.381 37.7213 277.429 37.8378C277.477 37.9544 277.547 38.0604 277.636 38.1497C277.725 38.2391 277.831 38.31 277.947 38.3585C278.063 38.407 278.188 38.4321 278.314 38.4324H286.555C286.81 38.4323 287.055 38.3309 287.235 38.1505C287.415 37.9701 287.517 37.7255 287.517 37.4703V29.2329C287.516 28.978 287.415 28.7337 287.234 28.5535C287.054 28.3732 286.81 28.2716 286.555 28.2709Z" fill="#D6D6E3"/>
<path d="M286.555 42.3136H278.314C278.06 42.3148 277.816 42.4166 277.637 42.5969C277.457 42.7772 277.357 43.0213 277.357 43.2756V51.5127C277.357 51.6387 277.381 51.7636 277.429 51.8801C277.477 51.9967 277.547 52.1027 277.636 52.1921C277.725 52.2814 277.831 52.3523 277.947 52.4008C278.063 52.4493 278.188 52.4744 278.314 52.4747H286.555C286.81 52.4746 287.055 52.3732 287.235 52.1928C287.415 52.0124 287.517 51.7678 287.517 51.5127V43.2768C287.516 43.0219 287.415 42.7776 287.234 42.5974C287.054 42.4171 286.81 42.3155 286.555 42.3148V42.3136Z" fill="#6C63FF"/>
<path d="M286.555 56.3567H278.314C278.188 56.357 278.063 56.3821 277.947 56.4305C277.831 56.479 277.725 56.55 277.636 56.6393C277.547 56.7287 277.477 56.8347 277.429 56.9512C277.381 57.0678 277.357 57.1927 277.357 57.3187V65.5562C277.357 65.6822 277.381 65.8071 277.429 65.9236C277.477 66.0402 277.547 66.1462 277.636 66.2355C277.725 66.3249 277.831 66.3958 277.947 66.4443C278.063 66.4928 278.188 66.5179 278.314 66.5182H286.555C286.81 66.5181 287.055 66.4167 287.235 66.2363C287.415 66.0559 287.517 65.8113 287.517 65.5562V57.3187C287.517 57.0636 287.415 56.819 287.235 56.6386C287.055 56.4582 286.81 56.3568 286.555 56.3567Z" fill="#6C63FF"/>
<path d="M303.858 0.185059H295.617C295.363 0.186219 295.119 0.288096 294.94 0.468397C294.76 0.648697 294.66 0.892729 294.66 1.14708V9.38772C294.66 9.64159 294.761 9.88507 294.94 10.0646C295.12 10.2441 295.363 10.345 295.617 10.345H303.858C304.112 10.3451 304.357 10.2444 304.537 10.065C304.717 9.88558 304.819 9.64206 304.82 9.38772V1.14708C304.819 0.892092 304.718 0.647763 304.537 0.467496C304.357 0.287229 304.113 0.18569 303.858 0.185059Z" fill="#D6D6E3"/>
<path d="M303.858 14.2279H295.617C295.363 14.2291 295.119 14.331 294.94 14.5113C294.76 14.6916 294.66 14.9356 294.66 15.1899V23.4306C294.66 23.6844 294.761 23.9279 294.94 24.1074C295.12 24.2869 295.363 24.3878 295.617 24.3878H303.858C304.112 24.3879 304.357 24.2872 304.537 24.1078C304.717 23.9284 304.819 23.6849 304.82 23.4306V15.1911C304.82 14.9359 304.718 14.6913 304.538 14.5108C304.357 14.3303 304.113 14.2285 303.858 14.2279Z" fill="#6C63FF"/>
<path d="M303.858 28.2709H295.617C295.363 28.272 295.119 28.3739 294.94 28.5542C294.76 28.7345 294.66 28.9785 294.66 29.2329V37.4703C294.659 37.5964 294.684 37.7213 294.732 37.8378C294.78 37.9544 294.85 38.0604 294.939 38.1497C295.028 38.2391 295.134 38.31 295.25 38.3585C295.366 38.407 295.491 38.4321 295.617 38.4324H303.858C304.113 38.4323 304.357 38.3309 304.538 38.1505C304.718 37.9701 304.82 37.7255 304.82 37.4703V29.2329C304.819 28.978 304.717 28.7337 304.537 28.5535C304.357 28.3732 304.113 28.2716 303.858 28.2709Z" fill="#6C63FF"/>
<path d="M303.858 42.3136H295.617C295.363 42.3148 295.119 42.4166 294.94 42.5969C294.76 42.7772 294.66 43.0213 294.66 43.2756V51.5127C294.659 51.6387 294.684 51.7636 294.732 51.8801C294.78 51.9967 294.85 52.1027 294.939 52.1921C295.028 52.2814 295.134 52.3523 295.25 52.4008C295.366 52.4493 295.491 52.4744 295.617 52.4747H303.858C304.113 52.4746 304.357 52.3732 304.538 52.1928C304.718 52.0124 304.82 51.7678 304.82 51.5127V43.2768C304.819 43.0219 304.717 42.7776 304.537 42.5974C304.357 42.4171 304.113 42.3155 303.858 42.3148V42.3136Z" fill="#6C63FF"/>
<path d="M303.858 56.3567H295.617C295.491 56.357 295.366 56.3821 295.25 56.4307C295.134 56.4792 295.028 56.5501 294.939 56.6395C294.85 56.7288 294.78 56.8348 294.732 56.9513C294.684 57.0678 294.66 57.1927 294.66 57.3187V65.5562C294.659 65.6822 294.684 65.8071 294.732 65.9236C294.78 66.0402 294.85 66.1462 294.939 66.2355C295.028 66.3249 295.134 66.3958 295.25 66.4443C295.366 66.4928 295.491 66.5179 295.617 66.5182H303.858C304.113 66.5181 304.357 66.4167 304.538 66.2363C304.718 66.0559 304.82 65.8113 304.82 65.5562V57.3187C304.82 57.0636 304.718 56.819 304.538 56.6386C304.357 56.4582 304.113 56.3568 303.858 56.3567Z" fill="#D6D6E3"/>
<path d="M321.161 0.185059H312.92C312.666 0.186219 312.422 0.288096 312.243 0.468397C312.063 0.648697 311.963 0.892729 311.963 1.14708V9.38772C311.963 9.64159 312.064 9.88507 312.243 10.0646C312.423 10.2441 312.666 10.345 312.92 10.345H321.161C321.415 10.3451 321.659 10.2444 321.84 10.065C322.02 9.88558 322.122 9.64206 322.123 9.38772V1.14708C322.122 0.89216 322.021 0.647897 321.84 0.467642C321.66 0.287387 321.416 0.185795 321.161 0.185059H321.161Z" fill="#D6D6E3"/>
<path d="M321.161 14.2279H312.92C312.666 14.2291 312.422 14.331 312.243 14.5113C312.063 14.6916 311.963 14.9356 311.963 15.1899V23.4306C311.963 23.6844 312.064 23.9279 312.243 24.1074C312.423 24.2869 312.666 24.3878 312.92 24.3878H321.161C321.415 24.3879 321.659 24.2872 321.84 24.1078C322.02 23.9284 322.122 23.6849 322.123 23.4306V15.1911C322.123 14.9359 322.021 14.6913 321.841 14.5108C321.66 14.3303 321.416 14.2285 321.161 14.2279Z" fill="#D6D6E3"/>
<path d="M321.161 28.2709H312.92C312.666 28.272 312.422 28.3739 312.243 28.5542C312.063 28.7345 311.963 28.9785 311.963 29.2329V37.4703C311.962 37.5964 311.987 37.7213 312.035 37.8378C312.083 37.9544 312.153 38.0604 312.242 38.1497C312.331 38.2391 312.437 38.31 312.553 38.3585C312.669 38.407 312.794 38.4321 312.92 38.4324H321.161C321.416 38.4323 321.66 38.3309 321.841 38.1505C322.021 37.9701 322.123 37.7255 322.123 37.4703V29.2329C322.122 28.978 322.02 28.7337 321.84 28.5535C321.66 28.3732 321.416 28.2716 321.161 28.2709Z" fill="#6C63FF"/>
<path d="M321.161 42.3136H312.92C312.666 42.3149 312.422 42.4168 312.243 42.5971C312.063 42.7773 311.963 43.0213 311.963 43.2756V51.5127C311.962 51.6387 311.987 51.7636 312.035 51.8801C312.083 51.9967 312.153 52.1027 312.242 52.1921C312.331 52.2814 312.437 52.3523 312.553 52.4008C312.669 52.4493 312.794 52.4744 312.92 52.4747H321.161C321.416 52.4746 321.66 52.3732 321.841 52.1928C322.021 52.0124 322.123 51.7678 322.123 51.5127V43.2768C322.122 43.0219 322.02 42.7776 321.84 42.5974C321.66 42.4171 321.416 42.3155 321.161 42.3148V42.3136Z" fill="#D6D6E3"/>
<path d="M321.161 56.3567H312.92C312.794 56.357 312.669 56.3821 312.553 56.4305C312.437 56.479 312.331 56.55 312.242 56.6393C312.153 56.7287 312.083 56.8347 312.035 56.9512C311.987 57.0678 311.962 57.1927 311.963 57.3187V65.5562C311.962 65.6822 311.987 65.807 312.035 65.9236C312.083 66.0401 312.153 66.1461 312.242 66.2354C312.331 66.3248 312.437 66.3957 312.553 66.4442C312.669 66.4927 312.794 66.5179 312.92 66.5182H321.161C321.416 66.5181 321.66 66.4167 321.841 66.2363C322.021 66.0559 322.123 65.8113 322.123 65.5562V57.3187C322.123 57.0636 322.021 56.819 321.841 56.6386C321.66 56.4582 321.416 56.3568 321.161 56.3567Z" fill="#D6D6E3"/>
<mask id="mask0_25_331" style="mask-type:luminance" maskUnits="userSpaceOnUse" x="1" y="20" width="277" height="277">
<path d="M139.401 296.971C215.838 296.971 277.802 235.007 277.802 158.57C277.802 82.1332 215.838 20.1691 139.401 20.1691C62.9642 20.1691 1 82.1332 1 158.57C1 235.007 62.9642 296.971 139.401 296.971Z" fill="white"/>
</mask>
<g mask="url(#mask0_25_331)">
<path d="M106.695 109.511H84.3596V130.252H106.695V109.511Z" fill="#ED9DA0"/>
<path d="M142.346 297.091C141.419 297.113 140.488 297.124 139.554 297.124C117.378 297.124 85.062 289.92 59.7498 272.566C57.6554 271.13 60.0026 264.328 59.7498 251.207L114.363 243.532L141.776 265.714L142.346 297.091Z" fill="#090814"/>
<path d="M113.797 267.233H113.567L113.764 267.207L113.797 267.233Z" fill="#2F2E41"/>
<path d="M94.0807 113.669C108.043 113.669 119.362 102.351 119.362 88.3879C119.362 74.4254 108.043 63.1064 94.0807 63.1064C80.1182 63.1064 68.7993 74.4254 68.7993 88.3879C68.7993 102.351 80.1182 113.669 94.0807 113.669Z" fill="#ED9DA0"/>
<path d="M116.22 69.8522C116.22 69.8522 122.833 57.2114 108.285 56.0623C108.285 56.0623 95.8835 44.8124 83.2428 54.0059C83.2428 54.0059 76.3479 54.0059 72.5776 61.8082C72.5776 61.8082 67.1532 59.7517 65.963 65.2558C65.963 65.2558 61.9949 76.7475 65.963 87.0901C69.9312 97.4326 71.249 98.5817 71.249 98.5817C71.249 98.5817 64.7286 76.8983 80.5996 75.7492C96.4706 74.6001 114.231 64.6815 115.554 77.3222C116.876 89.963 118.866 93.0768 118.866 93.0768C118.866 93.0768 131.429 75.0237 116.22 69.8522Z" fill="#090814"/>
<path d="M159.479 150.694L159.399 151.123L158.485 155.949L152.168 189.326L151.794 191.291L151.01 195.447L149.937 201.116L147.557 213.679L146.876 217.28L146.621 218.63L146.532 219.104L145.825 222.83L145.611 223.955L143.887 236.732V249.478L142.444 267.205L142.447 267.231L58.156 266.096C54.8997 263.987 51.2594 242.886 53.649 223.134L53.6342 222.826L53.4308 218.627L53.4049 218.086L53.365 217.276L52.584 201.112L52.5693 200.846L52.3324 195.946L52.1102 191.288L52.0141 189.323L51.0632 169.663L50.4195 156.312L49.8571 144.689L52.1182 143.924L76.3 135.705L86.3151 122.684L107.163 122.839L117.369 122.917L134.4 138.711L138.274 140.562L138.304 140.577L141.082 141.905L148.128 145.269L155.577 148.828L159.399 150.653L159.479 150.694Z" fill="#F2F2F2"/>
<path d="M89.0078 229.306C87.48 229.898 85.8411 230.147 84.2065 230.037C82.5719 229.927 80.9813 229.46 79.5467 228.668C78.1122 227.877 76.8686 226.781 75.9035 225.457C74.9383 224.133 74.2752 222.614 73.9608 221.006L34.5301 215.412L48.2373 199.906L83.5798 207.596C86.3163 207.246 89.0859 207.913 91.3638 209.469C93.6416 211.025 95.2694 213.363 95.9385 216.039C96.6077 218.716 96.2717 221.545 94.9943 223.99C93.7168 226.435 91.5868 228.326 89.0078 229.306Z" fill="#ED9DA0"/>
<path d="M71.4285 201.115C70.698 200.189 69.664 199.551 68.5089 199.313L52.3307 195.95L50.6691 195.605C49.7036 195.404 48.7914 195.001 47.9924 194.422C47.1934 193.844 46.5255 193.103 46.0325 192.249C45.5211 191.352 45.2117 190.355 45.1259 189.326C45.0488 188.391 45.1609 187.449 45.4554 186.558L51.0616 169.666L54.6991 158.705C55.1399 157.384 55.4001 156.008 55.4725 154.616C55.6749 150.766 54.4833 146.971 52.1162 143.927C50.0349 141.252 47.1481 139.316 43.8824 138.407C40.6167 137.499 37.1452 137.664 33.9809 138.88C33.8883 138.913 33.7922 138.95 33.6997 138.987C31.4303 139.893 29.4028 141.315 27.7773 143.139C26.1518 144.964 24.973 147.141 24.3339 149.5L20.3821 163.876L12.23 193.51C11.414 196.48 11.2491 199.59 11.7467 202.629C12.2443 205.668 13.3927 208.563 15.1131 211.117C16.8335 213.671 19.0855 215.823 21.7147 217.426C24.344 219.029 27.2886 220.045 30.347 220.404L53.6481 223.135L64.431 224.401C65.6779 224.551 66.9355 224.225 67.9531 223.489C68.9708 222.753 69.6739 221.661 69.9224 220.43C69.9396 220.363 69.9529 220.295 69.9623 220.227L70.2215 218.628L72.4152 205.166L72.4376 205.029C72.552 204.343 72.5213 203.64 72.3475 202.965C72.1737 202.291 71.8606 201.661 71.4285 201.115Z" fill="#F2F2F2"/>
<path d="M114.126 229.737C115.722 230.107 117.38 230.123 118.983 229.784C120.585 229.444 122.094 228.757 123.403 227.772C124.711 226.786 125.788 225.525 126.557 224.079C127.326 222.632 127.768 221.034 127.853 219.398L166.1 208.299L150.342 194.881L116.437 207.478C113.678 207.517 111.029 208.567 108.993 210.43C106.957 212.292 105.675 214.836 105.391 217.581C105.106 220.325 105.838 223.079 107.448 225.319C109.058 227.56 111.434 229.132 114.126 229.737Z" fill="#ED9DA0"/>
<path d="M185.089 183.472L166.898 141.606C165.41 138.168 162.753 135.369 159.397 133.705C158.36 133.195 157.271 132.797 156.148 132.521C155.974 132.477 155.8 132.436 155.626 132.401C153.246 131.882 150.777 131.928 148.418 132.535C146.261 133.089 144.246 134.091 142.502 135.477C140.759 136.862 139.328 138.599 138.301 140.575C138.29 140.592 138.28 140.609 138.272 140.627C137.125 142.845 136.515 145.302 136.491 147.799C136.468 150.296 137.031 152.764 138.135 155.003L138.361 155.455L151.216 181.272C151.655 182.155 151.902 183.121 151.942 184.106C151.981 185.091 151.812 186.074 151.445 186.989C151.078 187.904 150.522 188.732 149.813 189.417C149.104 190.102 148.258 190.629 147.33 190.964L146.427 191.29L130.19 197.153C128.972 197.588 127.97 198.479 127.395 199.638C126.82 200.796 126.717 202.133 127.108 203.366L127.148 203.496L131.699 218.06C131.721 218.127 131.743 218.193 131.769 218.26C131.809 218.385 131.859 218.508 131.917 218.626C132.401 219.711 133.256 220.587 134.328 221.098C135.401 221.609 136.62 221.72 137.768 221.412L146.53 219.099L148.317 218.625L170.946 212.653C173.924 211.867 176.696 210.446 179.073 208.488C181.45 206.53 183.376 204.082 184.719 201.311C186.062 198.54 186.791 195.511 186.855 192.432C186.918 189.353 186.316 186.297 185.089 183.472V183.472Z" fill="#F2F2F2"/>
<path d="M14.8564 218.629C18.2522 225.087 19.3491 231.073 25.3793 236.731H190.217C191.829 236.733 193.373 237.375 194.512 238.515C195.651 239.654 196.292 241.199 196.294 242.811L196.533 285.191C206.822 280.464 216.457 274.428 225.199 267.233C227.627 265.239 229.979 263.158 232.256 260.99C233.747 259.577 235.203 258.129 236.622 256.646C247.266 245.558 259.551 232.691 265.755 218.629H14.8564Z" fill="#090814"/>
<path d="M236.624 256.646C235.206 258.13 233.751 259.578 232.257 260.99H196.656V256.646H236.624Z" fill="white"/>
<path d="M159.145 117.701C158.97 117.377 158.709 117.105 158.392 116.917C158.075 116.728 157.713 116.628 157.343 116.628H36.031C35.487 116.63 34.9658 116.846 34.5816 117.231C34.1973 117.616 33.9813 118.138 33.9809 118.682V191.29H159.397V118.682C159.399 118.339 159.312 118.001 159.145 117.701Z" fill="#090814"/>
<path d="M33.8708 189.324V198.285C33.8708 199.035 34.1688 199.754 34.6993 200.285C35.2297 200.815 35.9492 201.113 36.6994 201.113H82.9895V218.796H82.3745C82.3262 218.796 82.2785 218.805 82.2339 218.824C82.1893 218.842 82.1488 218.869 82.1147 218.903C82.0806 218.937 82.0536 218.978 82.0351 219.023C82.0166 219.067 82.0071 219.115 82.0071 219.163V220.393C82.0071 220.49 82.0458 220.584 82.1147 220.652C82.1836 220.721 82.2771 220.76 82.3745 220.76H111.111C111.209 220.76 111.302 220.721 111.371 220.652C111.44 220.584 111.479 220.49 111.479 220.393V219.162C111.479 219.064 111.44 218.971 111.371 218.902C111.302 218.833 111.209 218.794 111.111 218.794H110.496V201.113H156.787C157.537 201.113 158.256 200.815 158.787 200.285C159.317 199.754 159.615 199.035 159.615 198.285V189.324H33.8708Z" fill="#090814"/>
<path d="M95.2238 163.608C101.622 163.608 106.808 158.422 106.808 152.024C106.808 145.626 101.622 140.439 95.2238 140.439C88.8258 140.439 83.6392 145.626 83.6392 152.024C83.6392 158.422 88.8258 163.608 95.2238 163.608Z" fill="#6C63FF"/>
<path d="M124.74 87.0067H122.891C122.891 73.0194 109.048 63.8535 95.083 63.8463C93.0518 63.8403 91.025 64.0374 89.0329 64.4346C86.7906 64.8825 84.4629 65.419 82.1763 66.1181C73.1587 68.8822 64.7956 74.2256 64.7956 87.0067C64.7936 89.4889 65.1094 91.9611 65.7353 94.3631L63.9444 94.8293C63.2808 92.2748 62.9457 89.646 62.9473 87.0067C62.9473 75.8389 67.5321 68.1682 75.4509 63.5942C79.6136 61.1892 84.6942 59.6384 90.515 58.8838C92.9372 58.5615 95.3859 58.4871 97.8231 58.6617C113.877 59.8163 124.74 72.1312 124.74 87.0067Z" fill="#6C63FF"/>
<path d="M127.822 88.0317L127.092 82.6437C126.986 81.8674 126.725 81.1201 126.327 80.4456C125.928 79.7712 125.399 79.1831 124.77 78.7158C124.141 78.2485 123.425 77.9114 122.664 77.7243C121.903 77.5372 121.112 77.5038 120.339 77.6261L119.182 77.7857C118.542 77.8723 117.963 78.2094 117.572 78.7228C117.18 79.2362 117.009 79.884 117.095 80.5238L118.779 92.9348C118.848 93.4407 119.075 93.912 119.427 94.282C119.779 94.6519 120.238 94.9017 120.74 94.996C120.888 95.0258 121.04 95.0406 121.191 95.0403C121.3 95.0404 121.409 95.033 121.516 95.0184L122.812 94.8445C123.601 94.7397 124.361 94.4746 125.045 94.0655C125.728 93.6563 126.321 93.1118 126.786 92.4653C126.886 92.3245 126.982 92.1806 127.071 92.0322C127.764 90.8213 128.029 89.4117 127.822 88.0317Z" fill="#6C63FF"/>
<path d="M127.822 88.0318L127.094 82.6425C126.914 81.2819 126.259 80.0289 125.244 79.1051L126.919 91.4531C126.944 91.6513 126.995 91.8453 127.07 92.0302C127.764 90.8194 128.029 89.41 127.821 88.0302L127.822 88.0318Z" fill="#090814"/>
<path d="M71.4584 99.8472L68.609 88.0014C68.5074 87.5741 68.2818 87.1864 67.9605 86.8868C67.6393 86.5873 67.2367 86.3894 66.8034 86.3178C66.6809 86.2988 66.5572 86.2889 66.4333 86.2883C66.2586 86.2889 66.0845 86.3101 65.9148 86.3513L64.8119 86.6178C63.3918 86.9608 62.1658 87.8532 61.4031 89.0993C60.6404 90.3453 60.4032 91.8431 60.7437 93.2638L62.02 98.5777C62.3112 99.829 63.0054 100.95 63.9959 101.768C64.1564 101.898 64.3245 102.018 64.4992 102.127C65.1195 102.516 65.8114 102.777 66.5341 102.894C67.2567 103.011 67.9955 102.982 68.7067 102.808L69.8055 102.542C70.0961 102.474 70.3695 102.347 70.6084 102.168C70.9644 101.909 71.2354 101.55 71.3867 101.137C71.5381 100.724 71.563 100.275 71.4584 99.8472Z" fill="#6C63FF"/>
<path d="M61.3894 90.9182C61.3108 90.5888 61.1633 90.2798 60.9566 90.0116C60.5561 91.0489 60.4825 92.1839 60.7456 93.2642L62.022 98.5781C62.3132 99.8295 63.0074 100.951 63.9979 101.769L61.3894 90.9182Z" fill="#090814"/>
</g>
</svg>
