<svg width="360" height="382" viewBox="0 0 360 382" fill="none" xmlns="http://www.w3.org/2000/svg">
<path d="M202.104 174.745C297.163 174.745 275.931 130.179 275.931 225.238C275.931 320.296 267.537 292.661 172.477 292.661C77.418 292.661 0 247.17 0 152.112C0 57.0533 107.046 174.745 202.104 174.745Z" fill="#D9D9D9"/>
<path d="M116.779 140.89C121.182 137.252 126.629 136.575 128.944 139.377C131.259 142.18 129.563 147.401 125.16 151.04C123.42 152.518 121.352 153.557 119.128 154.072L100.276 169.253L93.3408 160.254L112.662 146.243C113.587 144.155 114.999 142.319 116.779 140.889V140.89Z" fill="#ED9DA0"/>
<path d="M21.1048 128.566L17.0538 149.827L37.2459 155.52L34.7371 132.82L21.1048 128.566Z" fill="#ED9DA0"/>
<path d="M7.81843 175.142C7.80889 174.471 7.81509 168.613 12.1506 164.913C17.131 160.662 24.1583 162.383 26.6232 162.986C32.317 164.381 32.7841 166.823 38.1309 169.332C48.1345 174.028 35.6002 171.624 41.5528 170.119C43.6131 169.598 73.255 167.542 80.6331 163C94.9832 154.168 104.761 148.812 104.761 148.812L111.153 161.596C111.153 161.596 101.91 174.448 88.9019 183.969C75.5574 193.735 68.8852 198.618 58.7472 200.506C57.8741 200.669 36.3999 204.335 19.104 191.414C15.1588 188.466 7.93043 183.066 7.81795 175.144L7.81843 175.142Z" fill="#6C63FF"/>
<path d="M27.6465 142.63C39.944 142.63 49.9132 132.661 49.9132 120.364C49.9132 108.066 39.944 98.0971 27.6465 98.0971C15.3489 98.0971 5.37976 108.066 5.37976 120.364C5.37976 132.661 15.3489 142.63 27.6465 142.63Z" fill="#ED9DA0"/>
<path d="M202.031 269.96L179.1 246.487L167.262 258.835L184.347 281.342L201.294 283.28L202.031 269.96Z" fill="#ED9DA0"/>
<path d="M71.0903 225.942C72.4315 226.054 76.6941 226.908 80.7679 224.666C82.6835 223.571 84.2949 222.014 85.4557 220.138C91.4307 211.164 114.364 197.171 134.946 196.309C139.607 196.114 142.674 196.654 145.463 198.107C149.419 200.169 150.996 203.121 156.013 210.037C158.758 213.82 161.795 217.385 164.572 221.142C180.834 243.149 187 244.876 186.37 251.932C185.67 259.76 177.228 267.186 171.617 266.329C169.319 265.978 168.429 264.38 165.359 261.145C156.357 251.661 152.634 253.413 146.223 246.148C138.741 237.665 139.72 230.634 135.816 230.363C132.194 230.111 130.658 236.11 122.928 244.08C119.392 247.727 116.876 249.4 109.203 254.722C79.3244 275.451 78.8473 276.907 72.8175 278.56C70.1791 279.284 51.4549 284.417 44.785 276.248C34.3477 263.464 59.006 224.934 71.0927 225.939L71.0903 225.942Z" fill="#2F2E41"/>
<path d="M195.021 275.263C196.707 274.506 198.679 273.62 199.314 271.584C199.528 270.869 199.576 270.114 199.454 269.377C199.332 268.64 199.042 267.941 198.608 267.333C197.585 265.979 196.069 265.8 196.13 265.56C196.225 265.195 199.807 265.338 203.741 266.729C204.484 266.991 207.847 268.22 212.124 271.56C215.552 274.236 215.091 274.772 217.24 276.315C223.837 281.051 230.026 277.318 233.596 281.76C234.973 283.476 235.561 285.906 234.981 287.876C233.817 291.828 228.154 293.188 225.059 293.89C217.606 295.581 211.965 294.201 206.074 293.208C186.041 289.832 174.785 292.907 173.279 288.266C172.993 287.387 173.457 287.462 175.001 281.016C176.527 274.654 176.476 272.907 177.774 272.398C179.728 271.631 181.041 275.119 185.964 276.313C190.328 277.371 193.928 275.754 195.02 275.264L195.021 275.263Z" fill="#2F2E41"/>
<path d="M161.262 346.75L155.469 314.45L138.741 318.02L140.24 346.237L153.174 357.357L161.262 346.75Z" fill="#ED9DA0"/>
<path d="M77.6344 236.799C78.6829 237.645 81.7293 240.744 86.3588 241.178C88.5587 241.347 90.7662 240.965 92.7804 240.064C102.764 235.994 129.597 237.292 147.112 248.138C151.078 250.594 153.313 252.763 154.804 255.532C156.918 259.458 156.568 262.787 156.835 271.328C156.982 275.998 157.493 280.654 157.681 285.324C158.777 312.665 162.91 317.557 158.427 323.041C153.453 329.126 142.297 330.53 138.135 326.67C136.431 325.089 136.592 323.267 135.868 318.867C133.745 305.964 129.679 305.323 128.455 295.713C127.026 284.493 131.786 279.223 128.709 276.807C125.854 274.567 121.213 278.666 110.342 280.92C105.368 281.952 102.344 281.921 93.0068 282.017C56.6431 282.39 55.4316 283.328 49.5142 281.31C46.9249 280.427 28.5491 274.161 27.6174 263.655C26.159 247.216 68.1989 229.181 77.6354 236.799L77.6344 236.799Z" fill="#2F2E41"/>
<path d="M152.483 347.202C154.303 347.523 156.433 347.897 158.101 346.569C158.68 346.098 159.144 345.5 159.456 344.821C159.769 344.143 159.922 343.402 159.904 342.656C159.817 340.96 158.665 339.961 158.849 339.796C159.131 339.546 162.016 341.677 164.49 345.039C164.957 345.673 167.05 348.578 168.714 353.744C170.049 357.882 169.365 358.067 170.277 360.551C173.077 368.176 180.293 368.561 180.753 374.24C180.93 376.433 180.05 378.776 178.465 380.079C175.283 382.695 169.833 380.641 166.879 379.484C159.762 376.698 155.869 372.388 151.552 368.258C136.873 354.215 125.831 350.439 127.191 345.753C127.448 344.866 127.789 345.188 132.687 340.721C137.521 336.313 138.461 334.839 139.821 335.145C141.871 335.608 140.996 339.231 144.4 342.984C147.416 346.31 151.303 346.994 152.482 347.201L152.483 347.202Z" fill="#2F2E41"/>
<path d="M30.6818 124.62C31.5488 121.519 30.4598 120.389 31.5697 118.996C31.5697 118.996 32.0163 118.436 36.0087 116.924C34.8306 110.089 35.7127 108.934 35.7127 108.934C36.7293 107.602 38.7653 107.28 40.1517 107.456C43.0836 107.825 43.6026 110.475 45.4785 110.415C48.0702 110.333 51.178 105.146 50.2134 100.65C49.4266 96.98 46.0332 94.2582 45.1825 94.7309C44.339 95.1994 41.3031 93.1329 40.1517 93.5471C39.3653 93.8297 35.6641 93.4518 34.8248 93.843C33.9083 94.2682 31.2838 96.9156 31.0326 96.582C29.2888 94.2639 29.3259 93.4546 28.3161 92.9552C26.5231 92.0701 24.5744 93.7063 21.2149 95.3228C14.3001 98.649 12.2755 96.6649 9.08141 99.4658C7.46815 100.881 6.60315 103.585 4.93842 108.936C2.61076 116.418 1.44693 120.16 2.57073 123.732C3.7174 127.375 5.40548 126.583 7.89756 131.723C10.6713 137.444 12.4342 140.226 15.0555 141.536C17.0814 142.549 17.6181 142.448 18.8472 140.601C20.9518 137.437 15.5111 133.157 17.3698 128.171C18.5088 125.111 22.0217 122.79 24.1764 123.436C26.6122 124.167 26.7919 128.536 28.3194 128.467C29.6276 128.41 30.536 125.161 30.6871 124.62L30.6818 124.62Z" fill="#2F2E41"/>
<path d="M97.4319 331.849L65.449 320.533C64.5919 320.229 63.8904 319.597 63.4988 318.777C63.1071 317.956 63.0572 317.013 63.3601 316.156L78.344 273.807C78.6479 272.95 79.2796 272.249 80.1003 271.857C80.921 271.465 81.8636 271.416 82.721 271.718L114.704 283.035C115.561 283.339 116.262 283.971 116.654 284.791C117.046 285.612 117.096 286.555 116.793 287.412C116.615 303.323 111.192 317.28 101.809 329.761C101.505 330.618 100.873 331.319 100.053 331.711C99.232 332.103 98.2894 332.152 97.4319 331.849Z" fill="#E6E6E6"/>
<path d="M85.622 324.816L68.595 318.791C67.7927 318.506 67.1362 317.915 66.7694 317.146C66.4027 316.378 66.3556 315.495 66.6386 314.692L79.9726 277.008C80.2579 276.206 80.8497 275.55 81.618 275.183C82.3863 274.817 83.2686 274.77 84.0712 275.054L111.559 284.776C112.362 285.061 113.018 285.653 113.385 286.421C113.752 287.189 113.799 288.072 113.516 288.875C111.943 300.217 109.526 310.395 103.883 316.1C102.613 319.675 99.9781 322.6 96.5546 324.234C93.1312 325.868 89.1994 326.077 85.622 324.816Z" fill="white"/>
<path d="M78.7787 295.565C78.9006 295.224 79.1527 294.946 79.4795 294.791C79.8064 294.637 80.1813 294.618 80.522 294.739L101.933 302.382C102.274 302.503 102.552 302.755 102.707 303.082C102.862 303.409 102.881 303.784 102.759 304.125C102.638 304.465 102.386 304.744 102.059 304.899C101.732 305.054 101.357 305.073 101.016 304.951L79.6027 297.308C79.2627 297.186 78.985 296.933 78.8305 296.607C78.6761 296.28 78.6574 295.905 78.7787 295.565Z" fill="#6C63FF"/>
<path d="M97.9938 294.479C98.1159 294.139 98.3679 293.861 98.6948 293.706C99.0216 293.551 99.3964 293.532 99.7372 293.653L104.448 295.335C104.789 295.456 105.067 295.708 105.222 296.035C105.377 296.362 105.396 296.737 105.274 297.078C105.152 297.419 104.9 297.697 104.573 297.852C104.247 298.007 103.872 298.026 103.531 297.904L98.8202 296.223C98.4797 296.101 98.2015 295.849 98.0466 295.522C97.8916 295.195 97.8727 294.82 97.9938 294.479Z" fill="#6C63FF"/>
<path d="M74.7463 306.86C74.8683 306.52 75.1203 306.241 75.4471 306.086C75.7739 305.932 76.1488 305.913 76.4896 306.034L97.9009 313.676C98.2416 313.798 98.52 314.05 98.6749 314.377C98.8299 314.704 98.8486 315.079 98.727 315.419C98.6054 315.76 98.3535 316.039 98.0266 316.194C97.6997 316.348 97.3246 316.367 96.9839 316.246L75.5727 308.603C75.2322 308.481 74.954 308.229 74.7991 307.902C74.6442 307.576 74.6252 307.201 74.7463 306.86Z" fill="#6C63FF"/>
<path d="M76.7622 301.212C76.8842 300.872 77.1363 300.593 77.4631 300.439C77.7899 300.284 78.1649 300.265 78.5056 300.386L99.9168 308.029C100.258 308.15 100.536 308.402 100.691 308.729C100.846 309.056 100.865 309.431 100.743 309.772C100.621 310.113 100.369 310.391 100.043 310.546C99.7156 310.701 99.3406 310.72 98.9999 310.598L77.5886 302.955C77.2481 302.833 76.9699 302.581 76.815 302.255C76.6601 301.928 76.6411 301.553 76.7622 301.212Z" fill="#6C63FF"/>
<path d="M13.8139 145.927C18.3706 140.818 36.9285 146.106 38.6723 154.213C39.3872 157.549 36.7436 158.956 37.4885 162.795C38.578 168.411 44.7469 168.028 49.326 173.745C55.8267 181.86 49.1297 189.794 56.4272 203.338C57.9866 206.233 59.3015 208.672 62.0509 211.033C68.3581 216.45 75.1066 234.615 73.2984 238.259C70.2869 244.321 73.6969 248.772 73.8904 256.015C74.1325 265.078 69.3151 277.64 59.6856 281.762C48.8671 286.392 35.8152 278.723 29.5004 271.108C25.732 266.564 24.6392 262.372 22.9897 257.199C15.6221 234.077 11.4596 236.168 5.82536 217.84C-0.615736 196.886 -1.88203 172.339 5.82536 164.571C6.84669 163.542 9.65809 161.162 11.4491 156.877C13.8578 151.11 11.777 148.214 13.8168 145.927H13.8139Z" fill="#6C63FF"/>
<path d="M81.1417 264.858C84.6746 269.347 85.2222 274.808 82.3651 277.056C79.5079 279.304 74.3293 277.485 70.7959 272.997C69.3603 271.223 68.3702 269.131 67.9082 266.896L53.1816 247.69L60.7918 241.885L75.8868 260.615C77.9518 261.589 79.7535 263.044 81.1412 264.857L81.1417 264.858Z" fill="#ED9DA0"/>
<path d="M27.2023 165.398C27.8576 165.252 33.5919 164.064 38.1 167.552C43.2786 171.56 43.0279 178.79 42.9397 181.325C42.7367 187.183 40.4405 188.14 39.0751 193.886C36.5201 204.637 41.386 214.628 44.0745 220.149C46.6407 225.302 49.9685 230.04 53.9461 234.203C65.5205 246.451 75.8482 252.893 75.8482 252.893L64.7541 262.756C64.7541 262.756 47.0818 257.37 35.107 246.577C22.8234 235.507 3.93378 196.34 0.0181283 186.799C-0.319297 185.977 4.45755 199.333 13.5785 179.767C15.6588 175.303 19.4706 167.125 27.2032 165.398H27.2023Z" fill="#6C63FF"/>
<path d="M179.089 160.99C164.294 160.99 149.831 156.602 137.53 148.383C125.228 140.163 115.64 128.48 109.978 114.811C104.316 101.142 102.835 86.1013 105.721 71.5904C108.608 57.0796 115.732 43.7506 126.194 33.2889C136.656 22.8271 149.985 15.7026 164.495 12.8162C179.006 9.92986 194.047 11.4113 207.716 17.0731C221.385 22.7349 233.068 32.3229 241.288 44.6246C249.507 56.9263 253.895 71.3892 253.895 86.1843C253.895 96.0079 251.96 105.735 248.2 114.811C244.441 123.887 238.931 132.133 231.985 139.08C225.038 146.026 216.792 151.536 207.716 155.295C198.64 159.055 188.913 160.99 179.089 160.99ZM179.089 12.5575C164.527 12.5575 150.292 16.8757 138.184 24.9659C126.076 33.0562 116.639 44.5553 111.066 58.0089C105.494 71.4626 104.036 86.2666 106.877 100.549C109.718 114.831 116.73 127.95 127.027 138.247C137.324 148.544 150.443 155.556 164.726 158.397C179.008 161.238 193.812 159.78 207.265 154.207C220.719 148.635 232.218 139.198 240.308 127.09C248.398 114.981 252.717 100.746 252.716 86.1843C252.716 66.6571 244.959 47.9297 231.152 34.1219C217.344 20.3141 198.616 12.5575 179.089 12.5575Z" fill="#090814"/>
<path d="M254.674 76.2517H302.64C302.796 76.2517 302.946 76.1896 303.056 76.0791C303.167 75.9687 303.229 75.8188 303.229 75.6626C303.229 75.5064 303.167 75.3566 303.056 75.2461C302.946 75.1356 302.796 75.0735 302.64 75.0735H254.674C254.518 75.0735 254.368 75.1356 254.257 75.2461C254.147 75.3566 254.085 75.5064 254.085 75.6626C254.085 75.8188 254.147 75.9687 254.257 76.0791C254.368 76.1896 254.518 76.2517 254.674 76.2517Z" fill="#3F3D56"/>
<path d="M319.612 123.095C309.887 110.159 304.266 95.6941 304.082 79.2008C303.769 78.3121 303.821 77.3355 304.227 76.4851C304.633 75.6347 305.359 74.98 306.247 74.6646L339.396 62.9358C340.285 62.6225 341.261 62.6745 342.112 63.0804C342.962 63.4863 343.617 64.2129 343.932 65.1009L359.462 108.995C359.776 109.884 359.724 110.86 359.318 111.711C358.912 112.561 358.185 113.216 357.297 113.531L324.148 125.26C323.26 125.574 322.283 125.522 321.433 125.116C320.582 124.71 319.928 123.983 319.612 123.095V123.095Z" fill="#E6E6E6"/>
<path d="M317.466 108.938C311.617 103.024 309.113 92.4757 307.482 80.7197C307.188 79.8874 307.237 78.9727 307.617 78.1762C307.997 77.3798 308.678 76.7666 309.51 76.4714L337.998 66.3915C338.83 66.0981 339.745 66.1468 340.541 66.527C341.338 66.9072 341.951 67.5877 342.246 68.4194L356.067 107.478C356.361 108.31 356.312 109.225 355.932 110.021C355.551 110.818 354.871 111.431 354.039 111.726L336.391 117.969C332.684 119.277 328.609 119.06 325.061 117.366C321.514 115.673 318.782 112.642 317.467 108.937L317.466 108.938Z" fill="white"/>
<path d="M342.628 84.3599L320.436 92.2813C320.262 92.3437 320.076 92.3711 319.891 92.3618C319.705 92.3526 319.523 92.3069 319.356 92.2274C319.188 92.1479 319.037 92.0361 318.913 91.8985C318.788 91.7608 318.692 91.5999 318.629 91.4251C318.567 91.2502 318.54 91.0648 318.549 90.8793C318.558 90.6939 318.604 90.5121 318.683 90.3443C318.763 90.1765 318.875 90.026 319.012 89.9014C319.15 89.7768 319.311 89.6805 319.486 89.6181L341.677 81.6967C342.03 81.5707 342.419 81.5901 342.758 81.7507C343.097 81.9113 343.358 82.2 343.484 82.5531C343.61 82.9063 343.59 83.2951 343.43 83.6339C343.269 83.9727 342.981 84.2339 342.628 84.3599Z" fill="#6C63FF"/>
<path d="M322.712 83.2366L317.829 84.9794C317.655 85.0418 317.469 85.0692 317.284 85.0599C317.098 85.0507 316.916 85.005 316.749 84.9254C316.581 84.8459 316.43 84.7341 316.306 84.5964C316.181 84.4587 316.085 84.2979 316.023 84.123C315.96 83.9482 315.933 83.7627 315.942 83.5773C315.951 83.3918 315.997 83.21 316.077 83.0423C316.156 82.8745 316.268 82.724 316.406 82.5995C316.543 82.4749 316.704 82.3787 316.879 82.3163L321.761 80.5739C321.936 80.5114 322.122 80.4841 322.307 80.4933C322.492 80.5025 322.674 80.5482 322.842 80.6277C323.01 80.7072 323.16 80.819 323.285 80.9567C323.41 81.0943 323.506 81.2552 323.568 81.4301C323.631 81.6049 323.658 81.7904 323.649 81.9758C323.64 82.1613 323.594 82.3431 323.514 82.5109C323.435 82.6787 323.323 82.8292 323.185 82.9537C323.048 83.0783 322.887 83.1746 322.712 83.237L322.712 83.2366Z" fill="#6C63FF"/>
<path d="M346.806 96.0673L324.615 103.989C324.44 104.051 324.254 104.078 324.069 104.069C323.883 104.06 323.702 104.014 323.534 103.935C323.366 103.855 323.216 103.743 323.091 103.606C322.966 103.468 322.87 103.307 322.808 103.132C322.745 102.957 322.718 102.772 322.727 102.586C322.737 102.401 322.782 102.219 322.862 102.051C322.941 101.884 323.053 101.733 323.191 101.609C323.329 101.484 323.489 101.388 323.664 101.325L345.856 93.4041C346.209 93.278 346.598 93.2974 346.936 93.458C347.275 93.6185 347.537 93.9071 347.663 94.2603C347.789 94.6135 347.769 95.0022 347.609 95.3411C347.448 95.68 347.16 95.9412 346.806 96.0673Z" fill="#6C63FF"/>
<path d="M344.717 90.2138L322.525 98.1352C322.173 98.2554 321.788 98.2322 321.453 98.0708C321.119 97.9093 320.861 97.6226 320.736 97.2725C320.611 96.9225 320.629 96.5373 320.786 96.2004C320.942 95.8634 321.226 95.6017 321.574 95.472L343.766 87.5506C344.119 87.4246 344.508 87.444 344.847 87.6046C345.185 87.7653 345.447 88.0539 345.573 88.4071C345.699 88.7602 345.679 89.149 345.519 89.4878C345.358 89.8266 345.069 90.0878 344.716 90.2138H344.717Z" fill="#6C63FF"/>
<path d="M305.969 83.9095C309.222 83.9095 311.859 81.2724 311.859 78.0193C311.859 74.7663 309.222 72.1292 305.969 72.1292C302.715 72.1292 300.078 74.7663 300.078 78.0193C300.078 81.2724 302.715 83.9095 305.969 83.9095Z" fill="#6C63FF"/>
<path d="M147.79 20.0819H99.8244C99.6681 20.0819 99.5183 20.0198 99.4078 19.9093C99.2973 19.7989 99.2353 19.649 99.2353 19.4928C99.2353 19.3366 99.2973 19.1868 99.4078 19.0763C99.5183 18.9658 99.6681 18.9037 99.8244 18.9037H147.79C147.946 18.9037 148.096 18.9658 148.206 19.0763C148.317 19.1868 148.379 19.3366 148.379 19.4928C148.379 19.649 148.317 19.7989 148.206 19.9093C148.096 20.0198 147.946 20.0819 147.79 20.0819Z" fill="#3F3D56"/>
<path d="M37.7963 40.9755C41.9622 25.3372 49.8659 11.9818 62.7219 1.65028C63.2272 0.854813 64.0275 0.292299 64.9471 0.086171C65.8666 -0.119957 66.8305 0.047135 67.627 0.550783L97.3261 19.376C98.1215 19.8814 98.6841 20.6816 98.8902 21.6012C99.0963 22.5208 98.9292 23.4846 98.4256 24.2811L73.5 63.6063C72.9947 64.4018 72.1944 64.9643 71.2748 65.1704C70.3552 65.3766 69.3914 65.2095 68.5949 64.7058L38.8958 45.8806C38.1005 45.3752 37.538 44.5749 37.3319 43.6554C37.1258 42.7358 37.2928 41.7721 37.7963 40.9755Z" fill="#E6E6E6"/>
<path d="M47.6031 30.5416C48.6411 22.289 55.3896 13.8047 63.6274 5.25996C64.1007 4.51499 64.8502 3.9882 65.7114 3.79521C66.5727 3.60221 67.4753 3.75877 68.2212 4.23053L93.7449 20.4083C94.4899 20.8816 95.0167 21.6311 95.2097 22.4924C95.4027 23.3536 95.2461 24.2562 94.7744 25.0022L72.5944 59.9962C72.121 60.7411 71.3716 61.2678 70.5103 61.4608C69.6491 61.6537 68.7466 61.4972 68.0006 61.0256L52.1888 51.0039C48.8707 48.8957 46.5244 45.5573 45.6646 41.7213C44.8048 37.8853 45.5018 33.8648 47.6026 30.542L47.6031 30.5416Z" fill="white"/>
<path d="M78.4632 38.299L58.5261 25.7414C58.369 25.6424 58.2329 25.5135 58.1256 25.362C58.0184 25.2104 57.942 25.0393 57.9009 24.8582C57.8598 24.6772 57.8547 24.4898 57.886 24.3068C57.9173 24.1238 57.9844 23.9487 58.0833 23.7916C58.1822 23.6345 58.3112 23.4985 58.4627 23.3912C58.6142 23.2839 58.7854 23.2076 58.9665 23.1665C59.1475 23.1254 59.3349 23.1203 59.5179 23.1516C59.7009 23.1829 59.8759 23.2499 60.033 23.3489L79.9702 35.908C80.1273 36.0069 80.2633 36.1358 80.3706 36.2874C80.4779 36.4389 80.5542 36.6101 80.5953 36.7911C80.6365 36.9722 80.6415 37.1595 80.6102 37.3425C80.5789 37.5255 80.5119 37.7006 80.4129 37.8577C80.314 38.0148 80.185 38.1508 80.0335 38.2581C79.882 38.3654 79.7108 38.4417 79.5298 38.4829C79.3487 38.524 79.1613 38.529 78.9783 38.4977C78.7953 38.4664 78.6203 38.3994 78.4632 38.3004V38.299Z" fill="#6C63FF"/>
<path d="M67.0447 21.942L62.66 19.1778C62.3428 18.978 62.1179 18.6603 62.0349 18.2946C61.9518 17.929 62.0175 17.5453 62.2173 17.2281C62.4171 16.9108 62.7348 16.6859 63.1005 16.6029C63.4661 16.5199 63.8498 16.5855 64.167 16.7853L68.5516 19.5495C68.8689 19.7494 69.0938 20.067 69.1768 20.4327C69.2598 20.7983 69.1942 21.182 68.9944 21.4992C68.7945 21.8165 68.4769 22.0414 68.1112 22.1244C67.7456 22.2075 67.3619 22.1418 67.0447 21.942Z" fill="#6C63FF"/>
<path d="M70.9907 48.1682L51.0541 35.6091C50.7368 35.4093 50.5119 35.0916 50.4289 34.726C50.3459 34.3603 50.4115 33.9767 50.6113 33.6594C50.8112 33.3421 51.1288 33.1173 51.4945 33.0342C51.8601 32.9512 52.2438 33.0168 52.5611 33.2166L72.4982 45.7757C72.6553 45.8747 72.7914 46.0036 72.8986 46.1551C73.0059 46.3067 73.0823 46.4778 73.1234 46.6589C73.1645 46.8399 73.1695 47.0273 73.1382 47.2103C73.1069 47.3933 73.0399 47.5683 72.9409 47.7254C72.842 47.8825 72.7131 48.0186 72.5615 48.1259C72.41 48.2331 72.2388 48.3095 72.0578 48.3506C71.8767 48.3917 71.6894 48.3968 71.5064 48.3655C71.3234 48.3342 71.1483 48.2671 70.9912 48.1682H70.9907Z" fill="#6C63FF"/>
<path d="M74.304 42.9095L54.3669 30.3505C54.0496 30.1506 53.8247 29.8329 53.7417 29.4673C53.6587 29.1016 53.7243 28.718 53.9241 28.4007C54.124 28.0835 54.4417 27.8586 54.8073 27.7756C55.1729 27.6925 55.5566 27.7581 55.8739 27.958L75.811 40.517C76.1283 40.7169 76.3531 41.0346 76.4362 41.4002C76.5192 41.7659 76.4536 42.1495 76.2538 42.4668C76.0539 42.784 75.7362 43.0089 75.3706 43.0919C75.0049 43.175 74.6213 43.1094 74.304 42.9095Z" fill="#6C63FF"/>
<path d="M96.4954 27.7402C99.7484 27.7402 102.386 25.1031 102.386 21.85C102.386 18.597 99.7484 15.9599 96.4954 15.9599C93.2423 15.9599 90.6052 18.597 90.6052 21.85C90.6052 25.1031 93.2423 27.7402 96.4954 27.7402Z" fill="#6C63FF"/>
<path d="M201.022 81.4642C201.022 83.0496 200.881 84.6318 200.598 86.1919C200.088 88.186 199.314 90.1034 198.299 91.8938C196.353 95.3491 194.268 96.6392 192.553 100.023C192.258 100.25 191.955 100.455 191.648 100.656C191.032 101.054 190.964 103 190.311 103.335C190.306 103.339 190.301 103.339 190.297 103.344C190.095 103.686 189.979 104.072 189.958 104.469V104.478C189.628 106.411 189.342 110.344 189.011 112.669C188.967 112.951 188.926 113.21 188.882 113.437C188.77 114.053 188.654 114.446 188.525 114.495C186.931 115.11 186.252 114.267 184.507 114.495C183.57 114.62 178.784 115.388 177.811 115.388C175.047 115.388 173.553 114.446 171.317 113.437C171.16 113.37 171.004 113.298 170.84 113.227C170.779 113.205 170.729 113.18 170.67 113.156C170.028 112.884 169.421 106.018 168.818 103.421C168.817 103.419 168.815 103.417 168.815 103.414C168.814 103.412 168.814 103.41 168.814 103.407C168.689 102.867 168.564 102.514 168.439 102.443L168.344 102.39C167.946 102.162 167.558 101.913 167.178 101.653C164.878 97.8221 160.437 94.1776 158.245 88.2203C157.616 86.0228 157.29 83.7498 157.276 81.4642C157.276 78.5917 157.842 75.7475 158.941 73.0937C160.04 70.4399 161.652 68.0287 163.683 65.9976C165.714 63.9665 168.125 62.3553 170.779 61.2561C173.433 60.1569 176.277 59.5911 179.149 59.5911C182.022 59.5911 184.866 60.1569 187.52 61.2561C190.173 62.3553 192.585 63.9665 194.616 65.9976C196.647 68.0287 198.258 70.4399 199.357 73.0937C200.457 75.7475 201.022 78.5917 201.022 81.4642Z" fill="#E6E6E6"/>
<path d="M200.599 86.1938C200.088 88.1872 199.315 90.104 198.299 91.8938C196.354 95.3491 194.268 96.6392 192.554 100.023C191.414 102.277 190.442 105.459 189.778 110.827C189.738 111.144 189.822 111.505 189.778 111.818C189.675 112.51 189.8 112.385 189.381 113.009C189.19 113.116 189.072 112.965 189.01 112.67C188.911 111.927 188.902 111.175 188.984 110.43C189.104 108.418 189.43 106.424 189.956 104.479V104.47C190.063 104.082 190.179 103.707 190.296 103.345C192.363 97.051 196.174 94.1991 197.902 90.9063C206.976 73.6366 190.206 54.3615 171.734 61.0657C170.744 61.4274 170.797 61.6376 170.744 61.6638C169.355 62.2662 168.226 62.5302 166.878 63.4448C158.691 69.0166 155.752 80.0377 159.445 89.1172C161.447 94.0318 165.632 96.8041 168.342 102.389C168.504 102.713 168.66 103.052 168.81 103.406C168.81 103.409 168.81 103.411 168.811 103.413C168.811 103.416 168.813 103.418 168.814 103.42C170.088 106.536 170.773 109.861 170.837 113.227C170.841 113.288 170.846 113.343 170.846 113.401C171.007 113.414 171.163 113.423 171.315 113.437C173.685 113.642 175.223 114.021 176.015 113.611L176.89 113.7C177.179 114.106 182.057 113.611 182.836 113.601H183.036C184.985 113.651 186.936 113.596 188.879 113.436C188.978 113.427 189.08 113.414 189.179 113.4C189.308 113.431 189.422 113.51 189.496 113.621C189.57 113.732 189.598 113.867 189.576 113.998C189.637 114.561 188.705 116.191 188.389 116.373C187.474 116.909 172.566 117.184 171.141 116.177C170.725 115.887 170.421 115.464 170.278 114.978C170.134 114.492 170.16 113.972 170.35 113.502C170.324 113.377 169.775 113.021 169.752 112.904C169.485 111.384 169.8 107.534 167.971 103.191C167.745 102.659 167.479 102.144 167.177 101.651C164.878 97.8207 160.437 94.1776 158.245 88.216C157.095 85.0161 156.692 81.5956 157.068 78.2162C157.858 69.8244 165.097 61.5661 173.221 59.4815C190.223 55.1159 204.579 70.5345 200.599 86.1938Z" fill="#010001"/>
<path d="M188.604 116.837C190.019 118.183 189.263 118.638 188.604 120.207C187.773 120.02 173.539 120.93 171.556 120.207C171.239 120.078 170.96 119.872 170.745 119.606C170.53 119.34 170.386 119.024 170.326 118.687C170.267 118.35 170.294 118.004 170.405 117.68C170.515 117.356 170.707 117.066 170.96 116.837C176.823 117.492 182.741 117.492 188.604 116.837Z" fill="#010001"/>
<path d="M189.396 120.802C189.953 122.041 188.887 122.8 188.405 123.776L187.414 123.974L171.753 123.775C170.807 123.594 170.211 122.274 169.966 121.397C169.95 121.279 169.97 121.159 170.023 121.052C170.077 120.946 170.162 120.859 170.266 120.802L171.554 120.405C176.73 120.824 181.926 120.957 187.116 120.802C187.462 120.6 187.856 120.494 188.256 120.494C188.657 120.494 189.05 120.6 189.396 120.802Z" fill="#010001"/>
<path d="M176.547 104.673H176.136V97.9594L168.567 81.9312L168.938 81.7553L176.547 97.864V104.673Z" fill="#0F0F10"/>
<path d="M179.035 47.8627C179.874 47.2908 179.888 53.9883 179.631 54.2061C178.65 55.0301 178.754 48.0538 179.035 47.8627Z" fill="#010001"/>
<path d="M172.295 48.457C172.954 48.0314 174.475 54.3729 174.376 54.7003C173.816 56.569 171.984 48.6567 172.295 48.457Z" fill="#010001"/>
<path d="M185.774 48.457C186.56 48.2511 185.238 54.4144 185.081 54.7003C183.594 57.4059 185.348 48.5695 185.774 48.457Z" fill="#010001"/>
<path d="M182.944 104.683L182.607 97.223L182.615 97.1944L186.632 80.6783L187.032 80.7736L183.021 97.2635L183.354 104.665L182.944 104.683Z" fill="#0F0F10"/>
</svg>
