<svg width="128" height="43" viewBox="0 0 128 43" fill="none" xmlns="http://www.w3.org/2000/svg">
<path d="M41.8636 25.5227L41.8523 20.5568H42.5114L48.7841 13.5455H53.5909L45.875 22.1364H45.0227L41.8636 25.5227ZM38.1136 31V7.72727H42.2273V31H38.1136ZM49.0682 31L43.3864 23.0568L46.1591 20.1591L53.9886 31H49.0682ZM63.3409 31.3409C61.5909 31.3409 60.0795 30.9773 58.8068 30.25C57.5417 29.5152 56.5682 28.4773 55.8864 27.1364C55.2045 25.7879 54.8636 24.2008 54.8636 22.375C54.8636 20.5795 55.2045 19.0038 55.8864 17.6477C56.5758 16.2841 57.5379 15.2235 58.7727 14.4659C60.0076 13.7008 61.4583 13.3182 63.125 13.3182C64.2008 13.3182 65.2159 13.4924 66.1705 13.8409C67.1326 14.1818 67.9811 14.7121 68.7159 15.4318C69.4583 16.1515 70.0417 17.0682 70.4659 18.1818C70.8902 19.2879 71.1023 20.6061 71.1023 22.1364V23.3977H56.7955V20.625H67.1591C67.1515 19.8371 66.9811 19.1364 66.6477 18.5227C66.3144 17.9015 65.8485 17.4129 65.25 17.0568C64.6591 16.7008 63.9697 16.5227 63.1818 16.5227C62.3409 16.5227 61.6023 16.7273 60.9659 17.1364C60.3295 17.5379 59.8333 18.0682 59.4773 18.7273C59.1288 19.3788 58.9508 20.0947 58.9432 20.875V23.2955C58.9432 24.3106 59.1288 25.1818 59.5 25.9091C59.8712 26.6288 60.3902 27.1818 61.0568 27.5682C61.7235 27.947 62.5038 28.1364 63.3977 28.1364C63.9962 28.1364 64.5379 28.053 65.0227 27.8864C65.5076 27.7121 65.928 27.4583 66.2841 27.125C66.6402 26.7917 66.9091 26.3788 67.0909 25.8864L70.9318 26.3182C70.6894 27.3333 70.2273 28.2197 69.5455 28.9773C68.8712 29.7273 68.0076 30.3106 66.9545 30.7273C65.9015 31.1364 64.697 31.3409 63.3409 31.3409ZM78.696 7.72727V31H74.5824V7.72727H78.696Z" fill="#4624F3"/>
<path d="M98.517 13.5455L92.3011 31H87.7557L81.5398 13.5455H85.9261L89.9375 26.5114H90.1193L94.142 13.5455H98.517ZM101.364 31V13.5455H105.477V31H101.364ZM103.432 11.0682C102.78 11.0682 102.22 10.8523 101.75 10.4205C101.28 9.98106 101.045 9.45454 101.045 8.84091C101.045 8.2197 101.28 7.69318 101.75 7.26136C102.22 6.82197 102.78 6.60227 103.432 6.60227C104.091 6.60227 104.652 6.82197 105.114 7.26136C105.583 7.69318 105.818 8.2197 105.818 8.84091C105.818 9.45454 105.583 9.98106 105.114 10.4205C104.652 10.8523 104.091 11.0682 103.432 11.0682ZM113.821 20.7727V31H109.707V13.5455H113.639V16.5114H113.844C114.245 15.5341 114.885 14.7576 115.764 14.1818C116.651 13.6061 117.745 13.3182 119.048 13.3182C120.253 13.3182 121.302 13.5758 122.196 14.0909C123.098 14.6061 123.795 15.3523 124.287 16.3295C124.787 17.3068 125.033 18.4924 125.026 19.8864V31H120.912V20.5227C120.912 19.3561 120.609 18.4432 120.003 17.7841C119.404 17.125 118.575 16.7955 117.514 16.7955C116.795 16.7955 116.154 16.9545 115.594 17.2727C115.041 17.5833 114.605 18.0341 114.287 18.625C113.976 19.2159 113.821 19.9318 113.821 20.7727Z" fill="#404040"/>
<path d="M37.435 40.979C37.0803 40.979 36.8027 40.8647 36.602 40.636C36.4013 40.4027 36.2613 40.0877 36.182 39.691L36.406 39.628C36.4947 39.852 36.595 40.0107 36.707 40.104C36.8237 40.1973 36.98 40.244 37.176 40.244C37.4 40.244 37.589 40.181 37.743 40.055C37.9017 39.929 37.981 39.775 37.981 39.593C37.981 39.4903 37.9437 39.439 37.869 39.439C37.8083 39.439 37.7197 39.453 37.603 39.481C37.491 39.509 37.379 39.5393 37.267 39.572C37.155 39.6 37.071 39.614 37.015 39.614C36.931 39.614 36.8447 39.5743 36.756 39.495C36.672 39.4157 36.5927 39.3153 36.518 39.194C36.4433 39.068 36.3827 38.9373 36.336 38.802C36.2893 38.6667 36.266 38.5407 36.266 38.424C36.266 38.1487 36.3523 37.9177 36.525 37.731C36.7023 37.5443 36.9543 37.451 37.281 37.451C37.561 37.451 37.7897 37.5257 37.967 37.675C38.1443 37.8243 38.2797 38.053 38.373 38.361L38.128 38.445C38.002 38.2443 37.8107 38.144 37.554 38.144C37.33 38.144 37.141 38.2023 36.987 38.319C36.833 38.4357 36.756 38.5827 36.756 38.76C36.756 38.8533 36.8003 38.9 36.889 38.9C36.959 38.9 37.05 38.886 37.162 38.858C37.274 38.8253 37.386 38.795 37.498 38.767C37.61 38.739 37.701 38.725 37.771 38.725C37.8783 38.725 37.9833 38.7857 38.086 38.907C38.1887 39.0283 38.2727 39.1823 38.338 39.369C38.4033 39.5557 38.436 39.747 38.436 39.943C38.436 40.2557 38.3497 40.5077 38.177 40.699C38.0043 40.8857 37.757 40.979 37.435 40.979ZM40.2565 40.965C40.1445 40.965 40.0092 40.937 39.8505 40.881C39.6918 40.825 39.5378 40.7503 39.3885 40.657C39.2392 40.5637 39.1132 40.4563 39.0105 40.335C38.9125 40.2137 38.8635 40.09 38.8635 39.964C38.8635 39.908 38.8705 39.7447 38.8845 39.474C38.9032 39.2033 38.9125 38.865 38.9125 38.459C38.9125 38.1323 39.0082 37.892 39.1995 37.738C39.3908 37.584 39.6778 37.507 40.0605 37.507C40.1725 37.507 40.2962 37.542 40.4315 37.612C40.5715 37.682 40.7045 37.773 40.8305 37.885C40.9565 37.997 41.0592 38.116 41.1385 38.242C41.2225 38.3633 41.2645 38.4777 41.2645 38.585C41.2645 38.7623 41.2598 38.9537 41.2505 39.159C41.2458 39.3643 41.2435 39.628 41.2435 39.95C41.2435 40.2487 41.1618 40.4937 40.9985 40.685C40.8352 40.8717 40.5878 40.965 40.2565 40.965ZM39.8085 40.37C40.0652 40.37 40.2518 40.3163 40.3685 40.209C40.4898 40.1017 40.5505 39.943 40.5505 39.733C40.5505 39.5837 40.5528 39.4157 40.5575 39.229C40.5622 39.0377 40.5668 38.8627 40.5715 38.704C40.5762 38.5407 40.5785 38.4263 40.5785 38.361C40.5785 38.2817 40.5645 38.2233 40.5365 38.186C40.5085 38.144 40.4525 38.123 40.3685 38.123C40.1165 38.123 39.9228 38.1673 39.7875 38.256C39.6568 38.34 39.5915 38.501 39.5915 38.739C39.5915 39.187 39.5868 39.5253 39.5775 39.754C39.5682 39.978 39.5635 40.1297 39.5635 40.209C39.5635 40.3163 39.6452 40.37 39.8085 40.37ZM42.8884 41.021C42.6084 40.923 42.3821 40.825 42.2094 40.727C42.0368 40.629 41.9504 40.5427 41.9504 40.468C41.9504 40.4027 41.9598 40.307 41.9784 40.181C41.9971 40.055 42.0064 39.9267 42.0064 39.796V38.907C42.0064 38.7297 42.0111 38.5827 42.0204 38.466C42.0298 38.3447 42.0484 38.235 42.0764 38.137H41.7614L41.3624 37.661L41.4114 37.542H42.2304C42.0158 37.3413 41.9084 37.094 41.9084 36.8C41.9084 36.576 41.9808 36.3987 42.1254 36.268C42.2748 36.1327 42.4964 36.065 42.7904 36.065C42.8558 36.065 42.9141 36.0697 42.9654 36.079C43.0214 36.0883 43.0704 36.1 43.1124 36.114L43.4834 36.639L43.4134 36.73C43.3014 36.702 43.1894 36.688 43.0774 36.688C42.8721 36.688 42.7228 36.7277 42.6294 36.807C42.5361 36.8817 42.4894 36.9867 42.4894 37.122C42.4894 37.2947 42.5408 37.4347 42.6434 37.542H43.0564L43.4274 38.032L43.3644 38.137H42.7764C42.7438 38.2257 42.7228 38.34 42.7134 38.48C42.7041 38.6153 42.6994 38.781 42.6994 38.977V39.873C42.6994 40.041 42.6924 40.1833 42.6784 40.3C42.6644 40.4167 42.6574 40.5077 42.6574 40.573C42.6574 40.6197 42.6761 40.6593 42.7134 40.692C42.7508 40.72 42.8418 40.7667 42.9864 40.832L42.8884 41.021ZM44.9355 40.944C44.8655 40.944 44.7698 40.9183 44.6485 40.867C44.5272 40.811 44.4035 40.741 44.2775 40.657C44.1515 40.5683 44.0442 40.4773 43.9555 40.384C43.8668 40.286 43.8225 40.1927 43.8225 40.104C43.8225 40.0527 43.8248 39.999 43.8295 39.943C43.8342 39.887 43.8412 39.8147 43.8505 39.726C43.8598 39.6327 43.8668 39.509 43.8715 39.355C43.8762 39.201 43.8785 39.0003 43.8785 38.753C43.8785 38.6597 43.8785 38.5617 43.8785 38.459C43.8785 38.3563 43.8762 38.249 43.8715 38.137H43.7455L43.3885 37.668L43.4375 37.556C43.6848 37.528 43.8412 37.4533 43.9065 37.332C43.9718 37.2107 44.0045 37.0263 44.0045 36.779L44.1235 36.737L44.5505 37.059C44.5505 37.143 44.5505 37.2247 44.5505 37.304C44.5505 37.3833 44.5505 37.4627 44.5505 37.542H45.1455L45.4955 38.032L45.4465 38.137H44.5575C44.5575 38.305 44.5575 38.466 44.5575 38.62C44.5575 38.774 44.5575 38.921 44.5575 39.061C44.5575 39.3317 44.5528 39.5393 44.5435 39.684C44.5388 39.8287 44.5318 39.936 44.5225 40.006C44.5132 40.076 44.5085 40.1413 44.5085 40.202C44.5085 40.2953 44.5575 40.342 44.6555 40.342C44.7395 40.342 44.8305 40.321 44.9285 40.279C45.0265 40.2323 45.1175 40.1763 45.2015 40.111H45.2995L45.6285 40.657C45.5632 40.7363 45.4605 40.804 45.3205 40.86C45.1805 40.916 45.0522 40.944 44.9355 40.944ZM48.9262 41.014C48.8982 41.014 48.8422 40.979 48.7582 40.909C48.6789 40.839 48.5902 40.7573 48.4922 40.664C48.3989 40.566 48.3149 40.475 48.2402 40.391C48.1702 40.307 48.1329 40.2533 48.1282 40.23C48.0815 39.9827 48.0372 39.74 47.9952 39.502C47.9532 39.2593 47.9042 38.984 47.8482 38.676C47.6942 39.2593 47.5659 39.719 47.4632 40.055C47.3652 40.391 47.2882 40.629 47.2322 40.769C47.1809 40.909 47.1412 40.979 47.1132 40.979C47.0759 40.979 47.0152 40.9463 46.9312 40.881C46.8519 40.811 46.7655 40.7293 46.6722 40.636C46.5835 40.5427 46.5065 40.4563 46.4412 40.377C46.3759 40.293 46.3385 40.2347 46.3292 40.202C46.2265 39.7073 46.1472 39.3013 46.0912 38.984C46.0352 38.662 46.0072 38.4357 46.0072 38.305C46.0072 38.2443 46.0119 38.1883 46.0212 38.137H45.8462L45.5382 37.654L45.5802 37.542H46.5462L46.8612 38.032L46.8262 38.13C46.6862 38.158 46.5952 38.207 46.5532 38.277C46.5112 38.3423 46.4902 38.4357 46.4902 38.557C46.4902 38.613 46.4972 38.6993 46.5112 38.816C46.5299 38.928 46.5579 39.0867 46.5952 39.292C46.6372 39.4973 46.6932 39.768 46.7632 40.104C46.8892 39.7027 47.0129 39.2897 47.1342 38.865C47.2555 38.4403 47.3745 38.0343 47.4912 37.647L47.6102 37.591L48.1352 37.99C48.1959 38.27 48.2589 38.5943 48.3242 38.963C48.3942 39.327 48.4712 39.7097 48.5552 40.111C48.5785 40.041 48.5995 39.9663 48.6182 39.887C48.6415 39.8077 48.6649 39.7237 48.6882 39.635C48.7722 39.313 48.8399 39.054 48.8912 38.858C48.9472 38.6573 48.9892 38.5033 49.0172 38.396C49.0499 38.284 49.0755 38.1977 49.0942 38.137H48.8282L48.5132 37.654L48.5552 37.542H49.3952L49.7802 38.13C49.5515 39.054 49.3625 39.7657 49.2132 40.265C49.0685 40.7643 48.9729 41.014 48.9262 41.014ZM52.5801 40.965C52.4681 40.9277 52.3654 40.8903 52.2721 40.853C52.1788 40.811 52.0901 40.7667 52.0061 40.72C51.9408 40.7853 51.8614 40.839 51.7681 40.881C51.6794 40.9183 51.5768 40.937 51.4601 40.937C51.3808 40.937 51.2641 40.9113 51.1101 40.86C50.9608 40.8087 50.8068 40.7433 50.6481 40.664C50.4894 40.58 50.3541 40.489 50.2421 40.391C50.1348 40.2883 50.0811 40.188 50.0811 40.09C50.0811 39.9687 50.0811 39.8613 50.0811 39.768C50.0858 39.67 50.0881 39.6117 50.0881 39.593C50.0881 39.3177 50.1581 39.124 50.2981 39.012C50.4428 38.8953 50.6434 38.837 50.9001 38.837C51.0308 38.837 51.1708 38.8463 51.3201 38.865C51.4694 38.8837 51.5908 38.9047 51.6841 38.928C51.6888 38.7973 51.6911 38.6737 51.6911 38.557C51.6958 38.4357 51.6981 38.3447 51.6981 38.284C51.6981 38.2327 51.6841 38.1953 51.6561 38.172C51.6281 38.1487 51.5768 38.137 51.5021 38.137C51.3201 38.137 51.1661 38.151 51.0401 38.179C50.9141 38.207 50.7951 38.2537 50.6831 38.319H50.5501L50.0951 37.654L50.1511 37.542H51.3201C51.4134 37.542 51.5184 37.5793 51.6351 37.654C51.7564 37.724 51.8754 37.8127 51.9921 37.92C52.1088 38.0273 52.2044 38.137 52.2791 38.249C52.3538 38.361 52.3911 38.459 52.3911 38.543C52.3911 38.697 52.3864 38.879 52.3771 39.089C52.3678 39.299 52.3584 39.5137 52.3491 39.733C52.3398 39.9477 52.3351 40.1437 52.3351 40.321C52.3351 40.461 52.3584 40.559 52.4051 40.615C52.4518 40.6663 52.5404 40.7177 52.6711 40.769L52.5801 40.965ZM50.7741 40.09C50.7741 40.2067 50.7951 40.2813 50.8371 40.314C50.8791 40.342 50.9304 40.356 50.9911 40.356C51.1824 40.356 51.3411 40.307 51.4671 40.209C51.5978 40.1063 51.6631 39.9477 51.6631 39.733C51.6631 39.691 51.6631 39.6397 51.6631 39.579C51.6678 39.5183 51.6701 39.4507 51.6701 39.376C51.6188 39.362 51.5558 39.3527 51.4811 39.348C51.4064 39.3433 51.3388 39.341 51.2781 39.341C51.1101 39.341 50.9841 39.3783 50.9001 39.453C50.8161 39.5277 50.7741 39.6583 50.7741 39.845V40.09ZM54.2677 41.063C53.8664 40.9323 53.577 40.8203 53.3997 40.727C53.2224 40.629 53.1337 40.559 53.1337 40.517C53.1337 40.4657 53.1407 40.377 53.1547 40.251C53.1734 40.125 53.1827 39.929 53.1827 39.663V38.795C53.1827 38.7017 53.1874 38.592 53.1967 38.466C53.206 38.3353 53.22 38.2257 53.2387 38.137H52.9797L52.6157 37.654L52.6647 37.542H53.3227C53.346 37.542 53.388 37.577 53.4487 37.647C53.514 37.7123 53.5794 37.7847 53.6447 37.864C53.7194 37.7427 53.822 37.654 53.9527 37.598C54.088 37.542 54.2304 37.514 54.3797 37.514C54.4544 37.514 54.5104 37.5187 54.5477 37.528L54.8977 38.018L54.8417 38.102C54.515 38.0973 54.2724 38.1603 54.1137 38.291C53.955 38.4217 53.8757 38.662 53.8757 39.012V39.761C53.8757 39.9943 53.8687 40.1763 53.8547 40.307C53.8454 40.433 53.8407 40.517 53.8407 40.559C53.8407 40.587 53.85 40.6127 53.8687 40.636C53.8874 40.6547 53.9317 40.678 54.0017 40.706C54.0764 40.734 54.193 40.7807 54.3517 40.846L54.2677 41.063ZM56.4798 40.951C56.3678 40.951 56.2301 40.923 56.0668 40.867C55.9035 40.8063 55.7401 40.7293 55.5768 40.636C55.4181 40.538 55.2851 40.433 55.1778 40.321C55.0705 40.2043 55.0168 40.09 55.0168 39.978C55.0168 39.866 55.0238 39.6723 55.0378 39.397C55.0565 39.1217 55.0658 38.7927 55.0658 38.41C55.0658 37.8033 55.3971 37.5 56.0598 37.5C56.1625 37.5 56.2815 37.5327 56.4168 37.598C56.5521 37.6587 56.6828 37.7403 56.8088 37.843C56.9348 37.941 57.0398 38.0437 57.1238 38.151C57.2078 38.2583 57.2498 38.3587 57.2498 38.452V39.026C57.2498 39.404 57.0398 39.593 56.6198 39.593C56.4891 39.593 56.3398 39.586 56.1718 39.572C56.0038 39.5533 55.8545 39.5323 55.7238 39.509C55.7191 39.663 55.7145 39.803 55.7098 39.929C55.7098 40.0503 55.7098 40.1203 55.7098 40.139C55.7098 40.2137 55.7285 40.2673 55.7658 40.3C55.8031 40.3327 55.8708 40.349 55.9688 40.349C56.1135 40.349 56.2698 40.328 56.4378 40.286C56.6105 40.2393 56.7645 40.1717 56.8998 40.083H57.0048L57.3828 40.657C57.2941 40.741 57.1611 40.811 56.9838 40.867C56.8111 40.923 56.6431 40.951 56.4798 40.951ZM55.7448 38.634C55.7448 38.6713 55.7425 38.7273 55.7378 38.802C55.7378 38.8767 55.7378 38.9607 55.7378 39.054C55.8731 39.068 56.0295 39.075 56.2068 39.075C56.3421 39.075 56.4355 39.0423 56.4868 38.977C56.5428 38.907 56.5708 38.802 56.5708 38.662V38.284C56.5708 38.2327 56.5568 38.1883 56.5288 38.151C56.5008 38.1137 56.4401 38.095 56.3468 38.095C56.1601 38.095 56.0131 38.1347 55.9058 38.214C55.7985 38.2887 55.7448 38.4287 55.7448 38.634ZM60.1439 40.951C60.0319 40.951 59.8942 40.923 59.7309 40.867C59.5675 40.8063 59.4042 40.7293 59.2409 40.636C59.0822 40.538 58.9492 40.433 58.8419 40.321C58.7345 40.2043 58.6809 40.09 58.6809 39.978C58.6809 39.866 58.6879 39.6723 58.7019 39.397C58.7205 39.1217 58.7299 38.7927 58.7299 38.41C58.7299 37.8033 59.0612 37.5 59.7239 37.5C59.8265 37.5 59.9455 37.5327 60.0809 37.598C60.2162 37.6587 60.3469 37.7403 60.4729 37.843C60.5989 37.941 60.7039 38.0437 60.7879 38.151C60.8719 38.2583 60.9139 38.3587 60.9139 38.452V39.026C60.9139 39.404 60.7039 39.593 60.2839 39.593C60.1532 39.593 60.0039 39.586 59.8359 39.572C59.6679 39.5533 59.5185 39.5323 59.3879 39.509C59.3832 39.663 59.3785 39.803 59.3739 39.929C59.3739 40.0503 59.3739 40.1203 59.3739 40.139C59.3739 40.2137 59.3925 40.2673 59.4299 40.3C59.4672 40.3327 59.5349 40.349 59.6329 40.349C59.7775 40.349 59.9339 40.328 60.1019 40.286C60.2745 40.2393 60.4285 40.1717 60.5639 40.083H60.6689L61.0469 40.657C60.9582 40.741 60.8252 40.811 60.6479 40.867C60.4752 40.923 60.3072 40.951 60.1439 40.951ZM59.4089 38.634C59.4089 38.6713 59.4065 38.7273 59.4019 38.802C59.4019 38.8767 59.4019 38.9607 59.4019 39.054C59.5372 39.068 59.6935 39.075 59.8709 39.075C60.0062 39.075 60.0995 39.0423 60.1509 38.977C60.2069 38.907 60.2349 38.802 60.2349 38.662V38.284C60.2349 38.2327 60.2209 38.1883 60.1929 38.151C60.1649 38.1137 60.1042 38.095 60.0109 38.095C59.8242 38.095 59.6772 38.1347 59.5699 38.214C59.4625 38.2887 59.4089 38.4287 59.4089 38.634ZM62.5068 41C62.2081 40.888 61.9771 40.7877 61.8138 40.699C61.6551 40.6057 61.5758 40.5217 61.5758 40.447C61.5758 40.3817 61.5828 40.2813 61.5968 40.146C61.6154 40.006 61.6248 39.8707 61.6248 39.74V38.844C61.6248 38.7507 61.6271 38.634 61.6318 38.494C61.6411 38.354 61.6574 38.235 61.6808 38.137H61.4218L61.0578 37.654L61.1068 37.542H61.7648C61.7834 37.542 61.8231 37.5747 61.8838 37.64C61.9491 37.7007 62.0144 37.7707 62.0798 37.85C62.1684 37.7287 62.2781 37.64 62.4088 37.584C62.5441 37.5233 62.6748 37.493 62.8008 37.493H62.9478C63.0411 37.493 63.1438 37.5303 63.2558 37.605C63.3724 37.6797 63.4844 37.7707 63.5918 37.878C63.7038 37.9853 63.7948 38.0927 63.8648 38.2C63.9348 38.3027 63.9698 38.3867 63.9698 38.452C63.9698 38.5687 63.9651 38.7133 63.9558 38.886C63.9464 39.0587 63.9418 39.1987 63.9418 39.306V39.817C63.9418 39.985 63.9348 40.1343 63.9208 40.265C63.9068 40.391 63.8998 40.4867 63.8998 40.552C63.8998 40.5987 63.9161 40.636 63.9488 40.664C63.9861 40.6873 64.0748 40.7363 64.2148 40.811L64.1308 41C63.8321 40.888 63.6011 40.7877 63.4378 40.699C63.2791 40.6057 63.1998 40.5217 63.1998 40.447C63.1998 40.3817 63.2068 40.2813 63.2208 40.146C63.2394 40.006 63.2488 39.8707 63.2488 39.74V39.376C63.2488 39.2267 63.2534 39.0563 63.2628 38.865C63.2721 38.6737 63.2768 38.5057 63.2768 38.361C63.2768 38.2677 63.2651 38.2047 63.2418 38.172C63.2184 38.1393 63.1671 38.123 63.0878 38.123C62.8264 38.123 62.6328 38.1907 62.5068 38.326C62.3808 38.4567 62.3178 38.6387 62.3178 38.872V39.817C62.3178 39.985 62.3108 40.1343 62.2968 40.265C62.2828 40.391 62.2758 40.4867 62.2758 40.552C62.2758 40.5987 62.2921 40.636 62.3248 40.664C62.3621 40.6873 62.4508 40.7363 62.5908 40.811L62.5068 41ZM65.7911 42.344C65.4318 42.344 65.1425 42.2437 64.9231 42.043C64.7038 41.8423 64.5311 41.511 64.4051 41.049L64.6361 40.979C64.7201 41.1937 64.8275 41.357 64.9581 41.469C65.0888 41.581 65.2755 41.637 65.5181 41.637C65.7048 41.637 65.8751 41.6137 66.0291 41.567C66.1831 41.5203 66.3068 41.455 66.4001 41.371C66.4935 41.2917 66.5401 41.2053 66.5401 41.112C66.5401 41.028 66.5005 40.986 66.4211 40.986C66.3511 40.986 66.2648 40.9977 66.1621 41.021C66.0595 41.0443 65.9545 41.0677 65.8471 41.091C65.7398 41.119 65.6395 41.133 65.5461 41.133C65.4481 41.133 65.3455 41.0957 65.2381 41.021C65.1308 40.9463 65.0281 40.8553 64.9301 40.748C64.8368 40.636 64.7598 40.524 64.6991 40.412C64.6431 40.2953 64.6151 40.1973 64.6151 40.118C64.6151 39.9687 64.6595 39.8473 64.7481 39.754C64.8415 39.6607 64.9535 39.5883 65.0841 39.537C64.7621 39.3877 64.6011 39.1403 64.6011 38.795V38.466C64.6011 38.1767 64.6595 37.955 64.7761 37.801C64.8975 37.6423 65.1028 37.5513 65.3921 37.528L65.8891 37.486C66.0525 37.472 66.1715 37.437 66.2461 37.381C66.3208 37.325 66.3698 37.234 66.3931 37.108L66.4771 37.059L66.9601 37.339C66.9321 37.549 66.8645 37.7077 66.7571 37.815C66.6545 37.9223 66.5215 37.9947 66.3581 38.032C66.4841 38.0973 66.5845 38.1883 66.6591 38.305C66.7385 38.4217 66.7781 38.55 66.7781 38.69V39.019C66.7781 39.2337 66.7571 39.4063 66.7151 39.537C66.6731 39.6677 66.5915 39.768 66.4701 39.838C66.3535 39.908 66.1785 39.9663 65.9451 40.013L65.6441 40.069C65.4481 40.1017 65.3151 40.146 65.2451 40.202C65.1751 40.2533 65.1401 40.314 65.1401 40.384C65.1401 40.4587 65.1868 40.496 65.2801 40.496C65.3875 40.496 65.5018 40.482 65.6231 40.454C65.7491 40.426 65.8681 40.398 65.9801 40.37C66.0968 40.342 66.1925 40.328 66.2671 40.328C66.3605 40.328 66.4491 40.3723 66.5331 40.461C66.6218 40.545 66.6988 40.6523 66.7641 40.783C66.8341 40.909 66.8878 41.0373 66.9251 41.168C66.9671 41.3033 66.9881 41.4177 66.9881 41.511C66.9881 41.777 66.8738 41.9823 66.6451 42.127C66.4211 42.2717 66.1365 42.344 65.7911 42.344ZM65.2521 38.949C65.2521 39.075 65.2685 39.1823 65.3011 39.271C65.3385 39.355 65.3968 39.411 65.4761 39.439L65.7001 39.404C65.8355 39.3807 65.9451 39.3363 66.0291 39.271C66.1131 39.2057 66.1551 39.0657 66.1551 38.851V38.62C66.1551 38.4287 66.1388 38.2933 66.1061 38.214C66.0735 38.13 66.0198 38.081 65.9451 38.067L65.6861 38.088C65.5135 38.102 65.3968 38.1533 65.3361 38.242C65.2801 38.3307 65.2521 38.48 65.2521 38.69V38.949ZM67.9147 37.073L67.4527 36.576V36.506C67.5787 36.338 67.749 36.191 67.9637 36.065L68.4257 36.548L68.4187 36.632C68.3254 36.6973 68.2367 36.7697 68.1527 36.849C68.0734 36.9283 67.994 37.003 67.9147 37.073ZM68.5377 41.014C68.239 40.902 68.008 40.8017 67.8447 40.713C67.686 40.6197 67.6067 40.5357 67.6067 40.461C67.6067 40.3957 67.6137 40.2953 67.6277 40.16C67.6464 40.02 67.6557 39.8847 67.6557 39.754V38.753C67.6557 38.6317 67.6604 38.5197 67.6697 38.417C67.6837 38.3097 67.7047 38.2163 67.7327 38.137H67.5017L67.1307 37.661L67.1797 37.542H68.0757L68.4817 38.088C68.4257 38.1627 68.3884 38.256 68.3697 38.368C68.3557 38.48 68.3487 38.6223 68.3487 38.795V39.831C68.3487 39.999 68.3417 40.1483 68.3277 40.279C68.3137 40.405 68.3067 40.5007 68.3067 40.566C68.3067 40.6127 68.323 40.65 68.3557 40.678C68.393 40.7013 68.4817 40.7503 68.6217 40.825L68.5377 41.014ZM70.1425 41C69.8438 40.888 69.6128 40.7877 69.4495 40.699C69.2908 40.6057 69.2115 40.5217 69.2115 40.447C69.2115 40.3817 69.2185 40.2813 69.2325 40.146C69.2512 40.006 69.2605 39.8707 69.2605 39.74V38.844C69.2605 38.7507 69.2628 38.634 69.2675 38.494C69.2768 38.354 69.2932 38.235 69.3165 38.137H69.0575L68.6935 37.654L68.7425 37.542H69.4005C69.4192 37.542 69.4588 37.5747 69.5195 37.64C69.5848 37.7007 69.6502 37.7707 69.7155 37.85C69.8042 37.7287 69.9138 37.64 70.0445 37.584C70.1798 37.5233 70.3105 37.493 70.4365 37.493H70.5835C70.6768 37.493 70.7795 37.5303 70.8915 37.605C71.0082 37.6797 71.1202 37.7707 71.2275 37.878C71.3395 37.9853 71.4305 38.0927 71.5005 38.2C71.5705 38.3027 71.6055 38.3867 71.6055 38.452C71.6055 38.5687 71.6008 38.7133 71.5915 38.886C71.5822 39.0587 71.5775 39.1987 71.5775 39.306V39.817C71.5775 39.985 71.5705 40.1343 71.5565 40.265C71.5425 40.391 71.5355 40.4867 71.5355 40.552C71.5355 40.5987 71.5518 40.636 71.5845 40.664C71.6218 40.6873 71.7105 40.7363 71.8505 40.811L71.7665 41C71.4678 40.888 71.2368 40.7877 71.0735 40.699C70.9148 40.6057 70.8355 40.5217 70.8355 40.447C70.8355 40.3817 70.8425 40.2813 70.8565 40.146C70.8752 40.006 70.8845 39.8707 70.8845 39.74V39.376C70.8845 39.2267 70.8892 39.0563 70.8985 38.865C70.9078 38.6737 70.9125 38.5057 70.9125 38.361C70.9125 38.2677 70.9008 38.2047 70.8775 38.172C70.8542 38.1393 70.8028 38.123 70.7235 38.123C70.4622 38.123 70.2685 38.1907 70.1425 38.326C70.0165 38.4567 69.9535 38.6387 69.9535 38.872V39.817C69.9535 39.985 69.9465 40.1343 69.9325 40.265C69.9185 40.391 69.9115 40.4867 69.9115 40.552C69.9115 40.5987 69.9278 40.636 69.9605 40.664C69.9978 40.6873 70.0865 40.7363 70.2265 40.811L70.1425 41ZM73.6859 40.951C73.5739 40.951 73.4362 40.923 73.2729 40.867C73.1095 40.8063 72.9462 40.7293 72.7829 40.636C72.6242 40.538 72.4912 40.433 72.3839 40.321C72.2765 40.2043 72.2229 40.09 72.2229 39.978C72.2229 39.866 72.2299 39.6723 72.2439 39.397C72.2625 39.1217 72.2719 38.7927 72.2719 38.41C72.2719 37.8033 72.6032 37.5 73.2659 37.5C73.3685 37.5 73.4875 37.5327 73.6229 37.598C73.7582 37.6587 73.8889 37.7403 74.0149 37.843C74.1409 37.941 74.2459 38.0437 74.3299 38.151C74.4139 38.2583 74.4559 38.3587 74.4559 38.452V39.026C74.4559 39.404 74.2459 39.593 73.8259 39.593C73.6952 39.593 73.5459 39.586 73.3779 39.572C73.2099 39.5533 73.0605 39.5323 72.9299 39.509C72.9252 39.663 72.9205 39.803 72.9159 39.929C72.9159 40.0503 72.9159 40.1203 72.9159 40.139C72.9159 40.2137 72.9345 40.2673 72.9719 40.3C73.0092 40.3327 73.0769 40.349 73.1749 40.349C73.3195 40.349 73.4759 40.328 73.6439 40.286C73.8165 40.2393 73.9705 40.1717 74.1059 40.083H74.2109L74.5889 40.657C74.5002 40.741 74.3672 40.811 74.1899 40.867C74.0172 40.923 73.8492 40.951 73.6859 40.951ZM72.9509 38.634C72.9509 38.6713 72.9485 38.7273 72.9439 38.802C72.9439 38.8767 72.9439 38.9607 72.9439 39.054C73.0792 39.068 73.2355 39.075 73.4129 39.075C73.5482 39.075 73.6415 39.0423 73.6929 38.977C73.7489 38.907 73.7769 38.802 73.7769 38.662V38.284C73.7769 38.2327 73.7629 38.1883 73.7349 38.151C73.7069 38.1137 73.6462 38.095 73.5529 38.095C73.3662 38.095 73.2192 38.1347 73.1119 38.214C73.0045 38.2887 72.9509 38.4287 72.9509 38.634ZM76.4408 40.951C76.3288 40.951 76.1911 40.923 76.0278 40.867C75.8644 40.8063 75.7011 40.7293 75.5378 40.636C75.3791 40.538 75.2461 40.433 75.1388 40.321C75.0314 40.2043 74.9778 40.09 74.9778 39.978C74.9778 39.866 74.9848 39.6723 74.9988 39.397C75.0174 39.1217 75.0268 38.7927 75.0268 38.41C75.0268 37.8033 75.3581 37.5 76.0208 37.5C76.1234 37.5 76.2424 37.5327 76.3778 37.598C76.5131 37.6587 76.6438 37.7403 76.7698 37.843C76.8958 37.941 77.0008 38.0437 77.0848 38.151C77.1688 38.2583 77.2108 38.3587 77.2108 38.452V39.026C77.2108 39.404 77.0008 39.593 76.5808 39.593C76.4501 39.593 76.3008 39.586 76.1328 39.572C75.9648 39.5533 75.8154 39.5323 75.6848 39.509C75.6801 39.663 75.6754 39.803 75.6708 39.929C75.6708 40.0503 75.6708 40.1203 75.6708 40.139C75.6708 40.2137 75.6894 40.2673 75.7268 40.3C75.7641 40.3327 75.8318 40.349 75.9298 40.349C76.0744 40.349 76.2308 40.328 76.3988 40.286C76.5714 40.2393 76.7254 40.1717 76.8608 40.083H76.9658L77.3438 40.657C77.2551 40.741 77.1221 40.811 76.9448 40.867C76.7721 40.923 76.6041 40.951 76.4408 40.951ZM75.7058 38.634C75.7058 38.6713 75.7034 38.7273 75.6988 38.802C75.6988 38.8767 75.6988 38.9607 75.6988 39.054C75.8341 39.068 75.9904 39.075 76.1678 39.075C76.3031 39.075 76.3964 39.0423 76.4478 38.977C76.5038 38.907 76.5318 38.802 76.5318 38.662V38.284C76.5318 38.2327 76.5178 38.1883 76.4898 38.151C76.4618 38.1137 76.4011 38.095 76.3078 38.095C76.1211 38.095 75.9741 38.1347 75.8668 38.214C75.7594 38.2887 75.7058 38.4287 75.7058 38.634ZM79.0206 41.063C78.6193 40.9323 78.33 40.8203 78.1526 40.727C77.9753 40.629 77.8866 40.559 77.8866 40.517C77.8866 40.4657 77.8936 40.377 77.9076 40.251C77.9263 40.125 77.9356 39.929 77.9356 39.663V38.795C77.9356 38.7017 77.9403 38.592 77.9496 38.466C77.959 38.3353 77.973 38.2257 77.9916 38.137H77.7326L77.3686 37.654L77.4176 37.542H78.0756C78.099 37.542 78.141 37.577 78.2016 37.647C78.267 37.7123 78.3323 37.7847 78.3976 37.864C78.4723 37.7427 78.575 37.654 78.7056 37.598C78.841 37.542 78.9833 37.514 79.1326 37.514C79.2073 37.514 79.2633 37.5187 79.3006 37.528L79.6506 38.018L79.5946 38.102C79.268 38.0973 79.0253 38.1603 78.8666 38.291C78.708 38.4217 78.6286 38.662 78.6286 39.012V39.761C78.6286 39.9943 78.6216 40.1763 78.6076 40.307C78.5983 40.433 78.5936 40.517 78.5936 40.559C78.5936 40.587 78.603 40.6127 78.6216 40.636C78.6403 40.6547 78.6846 40.678 78.7546 40.706C78.8293 40.734 78.946 40.7807 79.1046 40.846L79.0206 41.063Z" fill="#404040"/>
<line x1="32" y1="3" x2="32" y2="41" stroke="#404040" stroke-width="2"/>
<path d="M9.66021 16.9729C4.87365 19.6884 5.82055 26.9343 11.1516 28.3702C12.1079 28.6261 12.9317 29.2422 13.4904 30.0668L15.4031 32.896C15.9287 33.6779 16.9703 33.9196 17.7846 33.4552L19.5979 32.4268C20.417 31.9624 20.7436 30.9483 20.3459 30.0952C18.8972 26.9817 18.1397 25.9344 18.6557 24.1194C20.1708 18.7975 14.4468 14.2575 9.66021 16.9729Z" fill="#4624F3"/>
<path d="M15.1759 30.3843C13.8313 27.7542 12.302 25.0198 11.8381 24.2521C8.97843 25.4889 8.95476 22.001 10.7633 22.7545C11.2794 22.9678 11.6392 23.3896 11.9517 23.8729C12.8891 23.4275 13.7366 22.8019 14.4373 22.0389C14.1437 21.3755 13.8834 20.8874 13.9165 20.385C13.9591 19.622 14.7261 19.1387 15.299 19.6552C15.512 19.8495 15.6493 20.1481 15.6493 20.4372C15.6541 21.0532 15.1948 21.6266 14.7829 22.0958C15.7393 24.2284 16.7619 26.3562 17.8272 28.4271L17.562 28.5645C16.5157 26.522 15.5073 24.4321 14.5604 22.3328C13.8597 23.0768 13.0217 23.6881 12.1032 24.1288C12.6903 25.1098 14.1722 27.7779 15.4315 30.2516L15.1759 30.3843ZM10.2141 24.1146C10.5739 24.2994 11.0569 24.2615 11.6818 24.0009C11.4025 23.5744 11.0853 23.2142 10.6544 23.0341C9.67913 22.6218 9.60811 23.8066 10.2141 24.1146ZM14.21 20.404C14.1864 20.8258 14.4184 21.2712 14.6503 21.7972C14.9818 21.4039 15.3558 20.93 15.351 20.4372C15.351 20.0912 15.067 19.7074 14.7261 19.7405C14.6929 19.7453 14.229 20.1054 14.21 20.404Z" fill="#FBF3FF"/>
<path d="M13.4431 29.9956C13.4573 30.0193 13.4762 30.0383 13.4952 30.0667L15.4079 32.8959C15.9334 33.6778 16.975 33.9195 17.7893 33.4551L19.6026 32.4267C20.4217 31.9623 20.7484 30.9482 20.3507 30.0951C19.7068 28.7114 19.2002 27.7351 18.8783 26.92L13.4431 29.9956Z" fill="#404040"/>
<path d="M5.0346 16.0394L2.48745 13.8168C2.24126 13.6035 2.21758 13.2291 2.43063 12.9827C2.64368 12.7363 3.01771 12.7126 3.26391 12.9258L5.81105 15.1484C6.05725 15.3617 6.08092 15.7361 5.86787 15.9825C5.65009 16.2289 5.27606 16.2526 5.0346 16.0394Z" fill="#4624F3"/>
<path d="M4.17291 23.9961L0.745135 24.9249C0.427925 25.0102 0.10598 24.8254 0.0207596 24.5079C-0.0644611 24.1904 0.120186 23.8681 0.437397 23.7828L3.86516 22.854C4.18237 22.7687 4.50432 22.9535 4.58954 23.271C4.6795 23.5838 4.49012 23.9108 4.17291 23.9961Z" fill="#4624F3"/>
<path d="M4.62276 35.3933C4.32449 35.2559 4.20139 34.9004 4.33869 34.6066C4.85948 33.4977 5.48444 32.4362 6.20408 31.4457C6.39819 31.1803 6.76748 31.1235 7.03261 31.3178C7.29774 31.5121 7.35456 31.8817 7.16045 32.1471C6.48341 33.0759 5.89634 34.0711 5.40869 35.1137C5.27612 35.4028 4.92103 35.5355 4.62276 35.3933Z" fill="#4624F3"/>
<path d="M13.1779 12.8689C12.8512 12.8973 12.5624 12.6604 12.534 12.3334C12.3919 10.7837 12.0889 9.2483 11.6344 7.76499C11.5397 7.45222 11.7149 7.12049 12.0274 7.02571C12.3399 6.93093 12.6713 7.10627 12.766 7.41905C13.2489 8.98292 13.5661 10.5989 13.7129 12.2291C13.746 12.5514 13.5045 12.8405 13.1779 12.8689Z" fill="#4624F3"/>
<path d="M18.1681 15.8828C17.9692 15.6222 18.026 15.2525 18.2864 15.0535L21.3544 12.7408C21.6148 12.5418 21.9888 12.5987 22.1829 12.8593C22.377 13.12 22.3249 13.4943 22.0645 13.6886L18.9966 16.0013C18.7362 16.1956 18.3669 16.1435 18.1681 15.8828Z" fill="#4624F3"/>
<path d="M27.2157 22.9914C27.1684 23.0104 27.1115 23.0198 27.0595 23.0246C25.7385 23.1288 24.4034 23.0909 23.092 22.9108C22.77 22.8682 22.5428 22.5696 22.5854 22.2426C22.628 21.9204 22.9263 21.6929 23.2529 21.7356C24.4792 21.9062 25.7291 21.9393 26.9648 21.8446C27.2915 21.8209 27.5755 22.0626 27.5992 22.3896C27.6229 22.6597 27.4572 22.9014 27.2157 22.9914Z" fill="#4624F3"/>
</svg>
